<?xml version="1.0" encoding="UTF-8" standalone="no"?>
<!-- Created with Inkscape (http://www.inkscape.org/) -->

<svg
   xmlns:dc="http://purl.org/dc/elements/1.1/"
   xmlns:cc="http://creativecommons.org/ns#"
   xmlns:rdf="http://www.w3.org/1999/02/22-rdf-syntax-ns#"
   xmlns:svg="http://www.w3.org/2000/svg"
   xmlns="http://www.w3.org/2000/svg"
   xmlns:sodipodi="http://sodipodi.sourceforge.net/DTD/sodipodi-0.dtd"
   xmlns:inkscape="http://www.inkscape.org/namespaces/inkscape"
   width="400mm"
   height="260.035mm"
   viewBox="0 0 1417.3228 921.38386"
   id="svg4965"
   version="1.1"
   inkscape:version="0.91 r13725"
   sodipodi:docname="sdvx_top_cut_engrave.svg">
  <defs
     id="defs4967">
    <clipPath
       id="clipPath5527"
       clipPathUnits="userSpaceOnUse">
      <path
         inkscape:connector-curvature="0"
         id="path5529"
         d="m 0,0 0,1105.665 1700.79,0 L 1700.79,0 0,0" />
    </clipPath>
  </defs>
  <sodipodi:namedview
     id="base"
     pagecolor="#ffffff"
     bordercolor="#666666"
     borderopacity="1.0"
     inkscape:pageopacity="0.0"
     inkscape:pageshadow="2"
     inkscape:zoom="0.70710678"
     inkscape:cx="652.01052"
     inkscape:cy="500.63492"
     inkscape:document-units="px"
     inkscape:current-layer="g5525"
     showgrid="false"
     width="400mm"
     inkscape:window-width="1920"
     inkscape:window-height="1018"
     inkscape:window-x="-8"
     inkscape:window-y="154"
     inkscape:window-maximized="1" />
  <metadata
     id="metadata4970">
    <rdf:RDF>
      <cc:Work
         rdf:about="">
        <dc:format>image/svg+xml</dc:format>
        <dc:type
           rdf:resource="http://purl.org/dc/dcmitype/StillImage" />
        <dc:title></dc:title>
      </cc:Work>
    </rdf:RDF>
  </metadata>
  <g
     inkscape:label="Layer 1"
     inkscape:groupmode="layer"
     id="layer1"
     transform="translate(0,-130.97835)">
    <g
       transform="matrix(1.25,0,0,-1.25,0.46442643,1052.7932)"
       inkscape:label="sdvx_top-drawing"
       id="g5521">
      <g
         id="g5523">
        <g
           clip-path="url(#clipPath5527)"
           id="g5525">
          <g
             transform="matrix(1e-4,1,-1,1e-4,26.9325,539.1225)"
             id="g5531">
            <path
               inkscape:connector-curvature="0"
               id="path5533"
               style="fill:none;stroke:#000000;stroke-width:0.70499998;stroke-linecap:round;stroke-linejoin:round;stroke-miterlimit:10;stroke-dasharray:none;stroke-opacity:1"
               d="m 4.3875,0 c 0,2.42307 -1.96422,4.38738 -4.38729,4.3875 -2.42307,1.2e-4 -4.38748,-1.96401 -4.38771,-4.38708 -2.3e-4,-2.42307 1.9638,-4.38757 4.38687,-4.38792 2.42307,-3.5e-4 4.38767,1.96359 4.38813,4.38666" />
          </g>
          <g
             transform="matrix(1e-4,1,-1,1e-4,26.9325,283.02753)"
             id="g5535">
            <path
               inkscape:connector-curvature="0"
               id="path5537"
               style="fill:none;stroke:#000000;stroke-width:0.70499998;stroke-linecap:round;stroke-linejoin:round;stroke-miterlimit:10;stroke-dasharray:none;stroke-opacity:1"
               d="m 4.3875,0 c 0,2.42307 -1.96422,4.38738 -4.38729,4.3875 -2.42307,1.2e-4 -4.38748,-1.96401 -4.38771,-4.38708 -2.3e-4,-2.42307 1.9638,-4.38757 4.38687,-4.38792 2.42307,-3.5e-4 4.38767,1.96359 4.38813,4.38666" />
          </g>
          <g
             transform="matrix(1e-4,1,-1,1e-4,1106.9325,482.42249)"
             id="g5539">
            <path
               inkscape:connector-curvature="0"
               id="path5541"
               style="fill:none;stroke:#000000;stroke-width:0.70499998;stroke-linecap:round;stroke-linejoin:round;stroke-miterlimit:10;stroke-dasharray:none;stroke-opacity:1"
               d="m 4.3875,0 c 0,2.42307 -1.96422,4.38738 -4.38729,4.3875 -2.42307,1.2e-4 -4.38748,-1.96401 -4.38771,-4.38708 -2.3e-4,-2.42307 1.9638,-4.38757 4.38687,-4.38792 2.42307,-3.5e-4 4.38767,1.96359 4.38813,4.38666" />
          </g>
          <g
             transform="matrix(1e-4,1,-1,1e-4,1106.9325,254.67749)"
             id="g5543">
            <path
               inkscape:connector-curvature="0"
               id="path5545"
               style="fill:none;stroke:#000000;stroke-width:0.70499998;stroke-linecap:round;stroke-linejoin:round;stroke-miterlimit:10;stroke-dasharray:none;stroke-opacity:1"
               d="m 4.3875,0 c 0,2.42307 -1.96422,4.38738 -4.38729,4.3875 -2.42307,1.2e-4 -4.38748,-1.96401 -4.38771,-4.38708 -2.3e-4,-2.42307 1.9638,-4.38757 4.38687,-4.38792 2.42307,-3.5e-4 4.38767,1.96359 4.38813,4.38666" />
          </g>
          <g
             transform="matrix(1e-4,1,-1,1e-4,1106.9325,26.9325)"
             id="g5547">
            <path
               inkscape:connector-curvature="0"
               id="path5549"
               style="fill:none;stroke:#000000;stroke-width:0.70499998;stroke-linecap:round;stroke-linejoin:round;stroke-miterlimit:10;stroke-dasharray:none;stroke-opacity:1"
               d="m 4.3875,0 c 0,2.42307 -1.96422,4.38738 -4.38729,4.3875 -2.42307,1.2e-4 -4.38748,-1.96401 -4.38771,-4.38708 -2.3e-4,-2.42307 1.9638,-4.38757 4.38687,-4.38792 2.42307,-3.5e-4 4.38767,1.96359 4.38813,4.38666" />
          </g>
          <g
             transform="matrix(1e-4,1,-1,1e-4,890.9325,26.9325)"
             id="g5551">
            <path
               inkscape:connector-curvature="0"
               id="path5553"
               style="fill:none;stroke:#000000;stroke-width:0.70499998;stroke-linecap:round;stroke-linejoin:round;stroke-miterlimit:10;stroke-dasharray:none;stroke-opacity:1"
               d="m 4.3875,0 c 0,2.42307 -1.96422,4.38738 -4.38729,4.3875 -2.42307,1.2e-4 -4.38748,-1.96401 -4.38771,-4.38708 -2.3e-4,-2.42307 1.9638,-4.38757 4.38687,-4.38792 2.42307,-3.5e-4 4.38767,1.96359 4.38813,4.38666" />
          </g>
          <g
             transform="matrix(1e-4,1,-1,1e-4,674.9325,26.9325)"
             id="g5555">
            <path
               inkscape:connector-curvature="0"
               id="path5557"
               style="fill:none;stroke:#000000;stroke-width:0.70499998;stroke-linecap:round;stroke-linejoin:round;stroke-miterlimit:10;stroke-dasharray:none;stroke-opacity:1"
               d="m 4.3875,0 c 0,2.42307 -1.96422,4.38738 -4.38729,4.3875 -2.42307,1.2e-4 -4.38748,-1.96401 -4.38771,-4.38708 -2.3e-4,-2.42307 1.9638,-4.38757 4.38687,-4.38792 2.42307,-3.5e-4 4.38767,1.96359 4.38813,4.38666" />
          </g>
          <g
             transform="matrix(1e-4,1,-1,1e-4,458.9325,26.9325)"
             id="g5559">
            <path
               inkscape:connector-curvature="0"
               id="path5561"
               style="fill:none;stroke:#000000;stroke-width:0.70499998;stroke-linecap:round;stroke-linejoin:round;stroke-miterlimit:10;stroke-dasharray:none;stroke-opacity:1"
               d="m 4.3875,0 c 0,2.42307 -1.96422,4.38738 -4.38729,4.3875 -2.42307,1.2e-4 -4.38748,-1.96401 -4.38771,-4.38708 -2.3e-4,-2.42307 1.9638,-4.38757 4.38687,-4.38792 2.42307,-3.5e-4 4.38767,1.96359 4.38813,4.38666" />
          </g>
          <g
             transform="matrix(1e-4,1,-1,1e-4,242.9325,26.9325)"
             id="g5563">
            <path
               inkscape:connector-curvature="0"
               id="path5565"
               style="fill:none;stroke:#000000;stroke-width:0.70499998;stroke-linecap:round;stroke-linejoin:round;stroke-miterlimit:10;stroke-dasharray:none;stroke-opacity:1"
               d="m 4.3875,0 c 0,2.42307 -1.96422,4.38738 -4.38729,4.3875 -2.42307,1.2e-4 -4.38748,-1.96401 -4.38771,-4.38708 -2.3e-4,-2.42307 1.9638,-4.38757 4.38687,-4.38792 2.42307,-3.5e-4 4.38767,1.96359 4.38813,4.38666" />
          </g>
          <g
             transform="matrix(1e-4,1,-1,1e-4,26.9325,26.9325)"
             id="g5567">
            <path
               inkscape:connector-curvature="0"
               id="path5569"
               style="fill:none;stroke:#000000;stroke-width:0.70499998;stroke-linecap:round;stroke-linejoin:round;stroke-miterlimit:10;stroke-dasharray:none;stroke-opacity:1"
               d="m 4.3875,0 c 0,2.42307 -1.96422,4.38738 -4.38729,4.3875 -2.42307,1.2e-4 -4.38748,-1.96401 -4.38771,-4.38708 -2.3e-4,-2.42307 1.9638,-4.38757 4.38687,-4.38792 2.42307,-3.5e-4 4.38767,1.96359 4.38813,4.38666" />
          </g>
          <g
             transform="matrix(1e-4,1,-1,1e-4,1106.9325,710.1825)"
             id="g5571">
            <path
               inkscape:connector-curvature="0"
               id="path5573"
               style="fill:none;stroke:#000000;stroke-width:0.70499998;stroke-linecap:round;stroke-linejoin:round;stroke-miterlimit:10;stroke-dasharray:none;stroke-opacity:1"
               d="m 4.3875,0 c 0,2.42307 -1.96422,4.38738 -4.38729,4.3875 -2.42307,1.2e-4 -4.38748,-1.96401 -4.38771,-4.38708 -2.3e-4,-2.42307 1.9638,-4.38757 4.38687,-4.38792 2.42307,-3.5e-4 4.38767,1.96359 4.38813,4.38666" />
          </g>
          <g
             transform="matrix(1e-4,1,-1,1e-4,890.9325,710.1825)"
             id="g5575">
            <path
               inkscape:connector-curvature="0"
               id="path5577"
               style="fill:none;stroke:#000000;stroke-width:0.70499998;stroke-linecap:round;stroke-linejoin:round;stroke-miterlimit:10;stroke-dasharray:none;stroke-opacity:1"
               d="m 4.3875,0 c 0,2.42307 -1.96422,4.38738 -4.38729,4.3875 -2.42307,1.2e-4 -4.38748,-1.96401 -4.38771,-4.38708 -2.3e-4,-2.42307 1.9638,-4.38757 4.38687,-4.38792 2.42307,-3.5e-4 4.38767,1.96359 4.38813,4.38666" />
          </g>
          <g
             transform="matrix(1e-4,1,-1,1e-4,674.9325,710.1825)"
             id="g5579">
            <path
               inkscape:connector-curvature="0"
               id="path5581"
               style="fill:none;stroke:#000000;stroke-width:0.70499998;stroke-linecap:round;stroke-linejoin:round;stroke-miterlimit:10;stroke-dasharray:none;stroke-opacity:1"
               d="m 4.3875,0 c 0,2.42307 -1.96422,4.38738 -4.38729,4.3875 -2.42307,1.2e-4 -4.38748,-1.96401 -4.38771,-4.38708 -2.3e-4,-2.42307 1.9638,-4.38757 4.38687,-4.38792 2.42307,-3.5e-4 4.38767,1.96359 4.38813,4.38666" />
          </g>
          <g
             transform="matrix(1e-4,1,-1,1e-4,458.9325,710.1825)"
             id="g5583">
            <path
               inkscape:connector-curvature="0"
               id="path5585"
               style="fill:none;stroke:#000000;stroke-width:0.70499998;stroke-linecap:round;stroke-linejoin:round;stroke-miterlimit:10;stroke-dasharray:none;stroke-opacity:1"
               d="m 4.3875,0 c 0,2.42307 -1.96422,4.38738 -4.38729,4.3875 -2.42307,1.2e-4 -4.38748,-1.96401 -4.38771,-4.38708 -2.3e-4,-2.42307 1.9638,-4.38757 4.38687,-4.38792 2.42307,-3.5e-4 4.38767,1.96359 4.38813,4.38666" />
          </g>
          <g
             transform="matrix(1e-4,1,-1,1e-4,242.9325,710.1825)"
             id="g5587">
            <path
               inkscape:connector-curvature="0"
               id="path5589"
               style="fill:none;stroke:#000000;stroke-width:0.70499998;stroke-linecap:round;stroke-linejoin:round;stroke-miterlimit:10;stroke-dasharray:none;stroke-opacity:1"
               d="m 4.3875,0 c 0,2.42307 -1.96422,4.38738 -4.38729,4.3875 -2.42307,1.2e-4 -4.38748,-1.96401 -4.38771,-4.38708 -2.3e-4,-2.42307 1.9638,-4.38757 4.38687,-4.38792 2.42307,-3.5e-4 4.38767,1.96359 4.38813,4.38666" />
          </g>
          <g
             transform="matrix(1e-4,1,-1,1e-4,1008.5625,596.51245)"
             id="g5591">
            <path
               inkscape:connector-curvature="0"
               id="path5593"
               style="fill:none;stroke:#000000;stroke-width:0.70499998;stroke-linecap:round;stroke-linejoin:round;stroke-miterlimit:10;stroke-dasharray:none;stroke-opacity:1"
               d="m 28.3425,0 c 0,15.6526 -12.68854,28.34175 -28.34114,28.3425 -15.6526,7.5e-4 -28.34236,-12.68718 -28.34386,-28.33978 -0.0015,-15.6526 12.68582,-28.34297 28.33842,-28.34522 15.6526,-0.0023 28.34358,12.68446 28.34658,28.33707" />
          </g>
          <g
             transform="matrix(1e-4,1,-1,1e-4,1042.9425,576.66748)"
             id="g5595">
            <path
               inkscape:connector-curvature="0"
               id="path5597"
               style="fill:none;stroke:#000000;stroke-width:0.70499998;stroke-linecap:round;stroke-linejoin:round;stroke-miterlimit:10;stroke-dasharray:none;stroke-opacity:1"
               d="m 4.8225,0 c 0,2.6633 -2.15897,4.82237 -4.82227,4.8225 -2.6633,1.3e-4 -4.82247,-2.15873 -4.82273,-4.82204 -2.6e-4,-2.6633 2.1585,-4.82258 4.82181,-4.82296 2.6633,-3.8e-4 4.82268,2.15827 4.82319,4.82158" />
          </g>
          <g
             transform="matrix(1e-4,1,-1,1e-4,1008.5625,596.51245)"
             id="g5599">
            <path
               inkscape:connector-curvature="0"
               id="path5601"
               style="fill:none;stroke:#000000;stroke-width:0.70499998;stroke-linecap:round;stroke-linejoin:round;stroke-miterlimit:10;stroke-dasharray:none;stroke-opacity:1"
               d="m 28.3425,0 c 0,15.6526 -12.68854,28.34175 -28.34114,28.3425 -15.6526,7.5e-4 -28.34236,-12.68718 -28.34386,-28.33978 -0.0015,-15.6526 12.68582,-28.34297 28.33842,-28.34522 15.6526,-0.0023 28.34358,12.68446 28.34658,28.33707" />
          </g>
          <g
             transform="matrix(1e-4,1,-1,1e-4,974.19751,576.66748)"
             id="g5603">
            <path
               inkscape:connector-curvature="0"
               id="path5605"
               style="fill:none;stroke:#000000;stroke-width:0.70499998;stroke-linecap:round;stroke-linejoin:round;stroke-miterlimit:10;stroke-dasharray:none;stroke-opacity:1"
               d="m 4.8225,0 c 0,2.6633 -2.15897,4.82237 -4.82227,4.8225 -2.6633,1.3e-4 -4.82247,-2.15873 -4.82273,-4.82204 -2.6e-4,-2.6633 2.1585,-4.82258 4.82181,-4.82296 2.6633,-3.8e-4 4.82268,2.15827 4.82319,4.82158" />
          </g>
          <g
             transform="matrix(1e-4,1,-1,1e-4,1008.5625,636.1875)"
             id="g5607">
            <path
               inkscape:connector-curvature="0"
               id="path5609"
               style="fill:none;stroke:#000000;stroke-width:0.70499998;stroke-linecap:round;stroke-linejoin:round;stroke-miterlimit:10;stroke-dasharray:none;stroke-opacity:1"
               d="m 4.8225,0 c 0,2.6633 -2.15897,4.82237 -4.82227,4.8225 -2.6633,1.3e-4 -4.82247,-2.15873 -4.82273,-4.82204 -2.6e-4,-2.6633 2.1585,-4.82258 4.82181,-4.82296 2.6633,-3.8e-4 4.82268,2.15827 4.82319,4.82158" />
          </g>
          <g
             transform="matrix(1e-4,1,-1,1e-4,159.6525,576.66748)"
             id="g5611">
            <path
               inkscape:connector-curvature="0"
               id="path5613"
               style="fill:none;stroke:#000000;stroke-width:0.70499998;stroke-linecap:round;stroke-linejoin:round;stroke-miterlimit:10;stroke-dasharray:none;stroke-opacity:1"
               d="m 4.8225,0 c 0,2.6633 -2.15897,4.82237 -4.82227,4.8225 -2.6633,1.3e-4 -4.82247,-2.15873 -4.82273,-4.82204 -2.6e-4,-2.6633 2.1585,-4.82258 4.82181,-4.82296 2.6633,-3.8e-4 4.82268,2.15827 4.82319,4.82158" />
          </g>
          <g
             transform="matrix(1e-4,1,-1,1e-4,125.28751,596.51245)"
             id="g5615">
            <path
               inkscape:connector-curvature="0"
               id="path5617"
               style="fill:none;stroke:#000000;stroke-width:0.70499998;stroke-linecap:round;stroke-linejoin:round;stroke-miterlimit:10;stroke-dasharray:none;stroke-opacity:1"
               d="m 28.3425,0 c 0,15.6526 -12.68854,28.34175 -28.34114,28.3425 -15.6526,7.5e-4 -28.34236,-12.68718 -28.34386,-28.33978 -0.0015,-15.6526 12.68582,-28.34297 28.33842,-28.34522 15.6526,-0.0023 28.34358,12.68446 28.34658,28.33707" />
          </g>
          <g
             transform="matrix(1e-4,1,-1,1e-4,90.9225,576.66748)"
             id="g5619">
            <path
               inkscape:connector-curvature="0"
               id="path5621"
               style="fill:none;stroke:#000000;stroke-width:0.70499998;stroke-linecap:round;stroke-linejoin:round;stroke-miterlimit:10;stroke-dasharray:none;stroke-opacity:1"
               d="m 4.8225,0 c 0,2.6633 -2.15897,4.82237 -4.82227,4.8225 -2.6633,1.3e-4 -4.82247,-2.15873 -4.82273,-4.82204 -2.6e-4,-2.6633 2.1585,-4.82258 4.82181,-4.82296 2.6633,-3.8e-4 4.82268,2.15827 4.82319,4.82158" />
          </g>
          <g
             transform="matrix(1e-4,1,-1,1e-4,125.28751,596.51245)"
             id="g5623">
            <path
               inkscape:connector-curvature="0"
               id="path5625"
               style="fill:none;stroke:#000000;stroke-width:0.70499998;stroke-linecap:round;stroke-linejoin:round;stroke-miterlimit:10;stroke-dasharray:none;stroke-opacity:1"
               d="m 28.3425,0 c 0,15.6526 -12.68854,28.34175 -28.34114,28.3425 -15.6526,7.5e-4 -28.34236,-12.68718 -28.34386,-28.33978 -0.0015,-15.6526 12.68582,-28.34297 28.33842,-28.34522 15.6526,-0.0023 28.34358,12.68446 28.34658,28.33707" />
          </g>
          <g
             transform="matrix(1e-4,1,-1,1e-4,125.2875,636.1875)"
             id="g5627">
            <path
               inkscape:connector-curvature="0"
               id="path5629"
               style="fill:none;stroke:#000000;stroke-width:0.70499998;stroke-linecap:round;stroke-linejoin:round;stroke-miterlimit:10;stroke-dasharray:none;stroke-opacity:1"
               d="m 4.8225,0 c 0,2.6633 -2.15897,4.82237 -4.82227,4.8225 -2.6633,1.3e-4 -4.82247,-2.15873 -4.82273,-4.82204 -2.6e-4,-2.6633 2.1585,-4.82258 4.82181,-4.82296 2.6633,-3.8e-4 4.82268,2.15827 4.82319,4.82158" />
          </g>
          <g
             transform="matrix(1e-4,1,-1,1e-4,26.9325,710.1825)"
             id="g5631">
            <path
               inkscape:connector-curvature="0"
               id="path5633"
               style="fill:none;stroke:#000000;stroke-width:0.70499998;stroke-linecap:round;stroke-linejoin:round;stroke-miterlimit:10;stroke-dasharray:none;stroke-opacity:1"
               d="m 4.3875,0 c 0,2.42307 -1.96422,4.38738 -4.38729,4.3875 -2.42307,1.2e-4 -4.38748,-1.96401 -4.38771,-4.38708 -2.3e-4,-2.42307 1.9638,-4.38757 4.38687,-4.38792 2.42307,-3.5e-4 4.38767,1.96359 4.38813,4.38666" />
          </g>
          <g
             transform="matrix(1e-4,1,-1,1e-4,1008.5625,596.51245)"
             id="g5635">
            <path
               inkscape:connector-curvature="0"
               id="path5637"
               style="fill:none;stroke:#000000;stroke-width:0.70499998;stroke-linecap:round;stroke-linejoin:round;stroke-miterlimit:10;stroke-dasharray:none;stroke-opacity:1"
               d="m 28.3425,0 c 0,15.6526 -12.68854,28.34175 -28.34114,28.3425 -15.6526,7.5e-4 -28.34236,-12.68718 -28.34386,-28.33978 -0.0015,-15.6526 12.68582,-28.34297 28.33842,-28.34522 15.6526,-0.0023 28.34358,12.68446 28.34658,28.33707" />
          </g>
          <g
             transform="matrix(1e-4,1,-1,1e-4,125.28751,596.51245)"
             id="g5639">
            <path
               inkscape:connector-curvature="0"
               id="path5641"
               style="fill:none;stroke:#000000;stroke-width:0.70499998;stroke-linecap:round;stroke-linejoin:round;stroke-miterlimit:10;stroke-dasharray:none;stroke-opacity:1"
               d="m 28.3425,0 c 0,15.6526 -12.68854,28.34175 -28.34114,28.3425 -15.6526,7.5e-4 -28.34236,-12.68718 -28.34386,-28.33978 -0.0015,-15.6526 12.68582,-28.34297 28.33842,-28.34522 15.6526,-0.0023 28.34358,12.68446 28.34658,28.33707" />
          </g>
          <path
             inkscape:connector-curvature="0"
             id="path5643"
             style="fill:none;stroke:#000000;stroke-width:0.70499998;stroke-linecap:round;stroke-linejoin:round;stroke-miterlimit:10;stroke-dasharray:none;stroke-opacity:1"
             d="m 676.91998,171.88499 127.54505,0 0,80.50501 -127.54505,0 0,-80.50501" />
          <path
             inkscape:connector-curvature="0"
             id="path5645"
             style="fill:none;stroke:#000000;stroke-width:0.70499998;stroke-linecap:round;stroke-linejoin:round;stroke-miterlimit:10;stroke-dasharray:none;stroke-opacity:1"
             d="m 456.94501,171.88499 -127.56,0 0,80.50501 127.56,0 0,-80.50501" />
          <path
             inkscape:connector-curvature="0"
             id="path5647"
             style="fill:none;stroke:#000000;stroke-width:0.70499998;stroke-linecap:round;stroke-linejoin:round;stroke-miterlimit:10;stroke-dasharray:none;stroke-opacity:1"
             d="m 526.39502,616.34998 81.07495,0 0,81.07501 -81.07495,0 0,-81.07501" />
          <path
             inkscape:connector-curvature="0"
             id="path5649"
             style="fill:none;stroke:#000000;stroke-width:0.70499998;stroke-linecap:round;stroke-linejoin:round;stroke-miterlimit:10;stroke-dasharray:none;stroke-opacity:1"
             d="m 786.33002,337.42499 159.86999,0 0,159.87002 -159.86999,0 0,-159.87002" />
          <path
             inkscape:connector-curvature="0"
             id="path5651"
             style="fill:none;stroke:#000000;stroke-width:0.70499998;stroke-linecap:round;stroke-linejoin:round;stroke-miterlimit:10;stroke-dasharray:none;stroke-opacity:1"
             d="m 586.77002,337.42499 159.86999,0 0,159.87002 -159.86999,0 0,-159.87002" />
          <path
             inkscape:connector-curvature="0"
             id="path5653"
             style="fill:none;stroke:#000000;stroke-width:0.70499998;stroke-linecap:round;stroke-linejoin:round;stroke-miterlimit:10;stroke-dasharray:none;stroke-opacity:1"
             d="m 387.20999,337.42499 159.87003,0 0,159.87002 -159.87003,0 0,-159.87002" />
          <path
             inkscape:connector-curvature="0"
             id="path5655"
             style="fill:none;stroke:#000000;stroke-width:0.70499998;stroke-linecap:round;stroke-linejoin:round;stroke-miterlimit:10;stroke-dasharray:none;stroke-opacity:1"
             d="m 187.64999,337.42499 159.88501,0 0,159.87002 -159.88501,0 0,-159.87002" />
          <path
             inkscape:connector-curvature="0"
             id="path5657"
             style="fill:none;stroke:#000000;stroke-width:0.70499998;stroke-linecap:round;stroke-linejoin:round;stroke-miterlimit:10;stroke-dasharray:none;stroke-opacity:1"
             d="M 1133.865,737.09998 1133.865,0 0,0" />
        </g>
      </g>
    </g>
  </g>
</svg>
