<?xml version="1.0" encoding="UTF-8" standalone="no"?>
<!-- Created with Inkscape (http://www.inkscape.org/) -->

<svg
   xmlns:dc="http://purl.org/dc/elements/1.1/"
   xmlns:cc="http://creativecommons.org/ns#"
   xmlns:rdf="http://www.w3.org/1999/02/22-rdf-syntax-ns#"
   xmlns:svg="http://www.w3.org/2000/svg"
   xmlns="http://www.w3.org/2000/svg"
   xmlns:sodipodi="http://sodipodi.sourceforge.net/DTD/sodipodi-0.dtd"
   xmlns:inkscape="http://www.inkscape.org/namespaces/inkscape"
   width="400mm"
   height="260.035mm"
   viewBox="0 0 1417.3228 921.38386"
   id="svg4965"
   version="1.1"
   inkscape:version="0.91 r13725"
   sodipodi:docname="sdvx_top_engrave_and_cut.svg">
  <defs
     id="defs4967">
    <clipPath
       id="clipPath5527"
       clipPathUnits="userSpaceOnUse">
      <path
         inkscape:connector-curvature="0"
         id="path5529"
         d="m 0,0 0,1105.665 1700.79,0 L 1700.79,0 0,0" />
    </clipPath>
    <clipPath
       id="clipPath5083"
       clipPathUnits="userSpaceOnUse">
      <path
         inkscape:connector-curvature="0"
         id="path5085"
         d="m 0,0 0,1105.665 1700.79,0 L 1700.79,0 0,0" />
    </clipPath>
  </defs>
  <sodipodi:namedview
     id="base"
     pagecolor="#ffffff"
     bordercolor="#666666"
     borderopacity="1.0"
     inkscape:pageopacity="0.0"
     inkscape:pageshadow="2"
     inkscape:zoom="0.70710678"
     inkscape:cx="788.654"
     inkscape:cy="462.28082"
     inkscape:document-units="px"
     inkscape:current-layer="g4636"
     showgrid="false"
     width="400mm"
     inkscape:window-width="1920"
     inkscape:window-height="1018"
     inkscape:window-x="-8"
     inkscape:window-y="154"
     inkscape:window-maximized="1" />
  <metadata
     id="metadata4970">
    <rdf:RDF>
      <cc:Work
         rdf:about="">
        <dc:format>image/svg+xml</dc:format>
        <dc:type
           rdf:resource="http://purl.org/dc/dcmitype/StillImage" />
        <dc:title></dc:title>
      </cc:Work>
    </rdf:RDF>
  </metadata>
  <g
     style="display:inline"
     inkscape:label="Layer 2 copy"
     id="g4636"
     inkscape:groupmode="layer"
     sodipodi:insensitive="true">
    <text
       sodipodi:linespacing="125%"
       id="text4648"
       y="37.997272"
       x="664.92407"
       style="font-style:normal;font-variant:normal;font-weight:normal;font-stretch:normal;font-size:48.56124496px;line-height:125%;font-family:MoolBoran;-inkscape-font-specification:MoolBoran;text-align:start;letter-spacing:0px;word-spacing:0px;writing-mode:lr-tb;text-anchor:start;fill:#000000;fill-opacity:1;stroke:none"
       xml:space="preserve"><tspan
         y="37.997272"
         x="664.92407"
         id="tspan4650"
         sodipodi:role="line">START</tspan></text>
    <path
       sodipodi:nodetypes="ccccccccccccccccc"
       inkscape:connector-curvature="0"
       id="path4664"
       d="m 214.44569,287.82606 982.84691,0 19.8671,9.92769 -19.8671,49.9843 0,82.38622 11.5935,16.50877 0,74.49634 -186.9617,0 -23.24608,-8.27273 -598.91307,0 -9.73001,8.27273 -187.17204,0 0,-74.00085 11.58249,-17.00426 0,-82.71568 -23.16501,-49.65484 z"
       style="fill:#cccccc;stroke:#cccccc;stroke-width:3.30926013;stroke-linecap:butt;stroke-linejoin:miter;stroke-miterlimit:10;stroke-dashoffset:0;stroke-opacity:1" />
    <path
       sodipodi:nodetypes="ccccccccccccccccccccc"
       inkscape:connector-curvature="0"
       id="path4668"
       d="m 310.39996,555.62067 145.76393,0 18.55409,10.27891 26.65987,0 18.90216,-10.27891 145.47362,0 0,63.19999 -9.79351,14.6253 0,44.05275 9.79351,14.67339 0,63.15183 -145.47362,0 -18.84453,-10.27889 -26.7175,0 -18.55409,10.27889 -145.76393,0 0,-63.1449 9.79351,-14.68032 0,-44.05275 -9.79351,-14.52654 z"
       inkscape:transform-center-y="41.60426"
       inkscape:transform-center-x="74.031282"
       style="fill:#cccccc;fill-opacity:1;fill-rule:nonzero;stroke:#cccccc;stroke-width:2.9368;stroke-linecap:butt;stroke-linejoin:miter;stroke-miterlimit:10;stroke-dasharray:none;stroke-opacity:1" />
    <rect
       y="-61.042522"
       x="0.43323991"
       height="822.30383"
       width="1380.2987"
       id="rect4678"
       style="opacity:0;fill:#000000;fill-opacity:1;fill-rule:nonzero;stroke:#ffff00;stroke-width:2.48649478;stroke-linecap:butt;stroke-linejoin:miter;stroke-miterlimit:4;stroke-dasharray:none;stroke-opacity:1" />
    <rect
       y="-58.342884"
       x="-21.441683"
       height="820.96033"
       width="1323.2301"
       id="rect4680"
       style="opacity:0;fill:#000000;fill-opacity:1;fill-rule:nonzero;stroke:#ffff00;stroke-width:2.52666569;stroke-linecap:butt;stroke-linejoin:miter;stroke-miterlimit:4;stroke-dasharray:none;stroke-opacity:1" />
    <path
       sodipodi:nodetypes="ccccccccccccccccccccc"
       inkscape:connector-curvature="0"
       id="path4690"
       d="m 745.60542,555.62067 145.75954,0 18.55345,10.27891 26.66622,0 18.9064,-10.27891 145.46537,0 0,63.19999 -9.7949,14.6253 0,44.05275 9.7949,14.67339 0,63.15183 -145.46537,0 -18.84679,-10.27889 -26.72583,0 -18.55345,10.27889 -145.75963,0 0,-63.1449 9.79312,-14.68032 0,-44.05275 -9.79312,-14.52654 z"
       inkscape:transform-center-y="41.60426"
       inkscape:transform-center-x="74.032323"
       style="fill:#cccccc;fill-opacity:1;fill-rule:nonzero;stroke:#cccccc;stroke-width:2.9368;stroke-linecap:butt;stroke-linejoin:miter;stroke-miterlimit:10;stroke-dasharray:none;stroke-opacity:1" />
    <path
       inkscape:connector-curvature="0"
       id="path4724"
       d="m 89.70318,176.97815 c -16.9488,0 -16.9488,0 -16.9488,0"
       style="fill:#ffffff;stroke:#f9f9f9;stroke-width:8.81036758;stroke-linecap:butt;stroke-linejoin:miter;stroke-miterlimit:4;stroke-dasharray:none;stroke-opacity:1" />
    <path
       inkscape:connector-curvature="0"
       id="path4726"
       d="m 242.41782,176.97815 c -16.95016,0 -16.95016,0 -16.95016,0"
       style="fill:#ffffff;stroke:#f9f9f9;stroke-width:8.81036758;stroke-linecap:butt;stroke-linejoin:miter;stroke-miterlimit:4;stroke-dasharray:none;stroke-opacity:1" />
    <path
       inkscape:connector-curvature="0"
       id="path4768"
       d="m 1261.7691,244.85951 c 0,16.94991 0,16.94991 0,16.94991"
       style="fill:#ffffff;stroke:#f9f9f9;stroke-width:8.81036758;stroke-linecap:butt;stroke-linejoin:miter;stroke-miterlimit:4;stroke-dasharray:none;stroke-opacity:1" />
    <path
       inkscape:connector-curvature="0"
       id="path4772"
       d="m 1193.8867,176.97795 c -16.9424,0 -16.9424,0 -16.9424,0"
       style="fill:#ffffff;stroke:#f9f9f9;stroke-width:8.81036758;stroke-linecap:butt;stroke-linejoin:miter;stroke-miterlimit:4;stroke-dasharray:none;stroke-opacity:1" />
    <path
       inkscape:connector-curvature="0"
       id="path4778"
       d="m 1261.7691,92.146096 c 0,16.948934 0,16.948934 0,16.948934"
       style="fill:#ffffff;stroke:#f9f9f9;stroke-width:8.81036758;stroke-linecap:butt;stroke-linejoin:miter;stroke-miterlimit:4;stroke-dasharray:none;stroke-opacity:1" />
    <circle
       r="107.39896"
       cy="176.97693"
       cx="1261.7709"
       id="circle4784"
       style="opacity:0.98000004;fill:none;stroke:#cccccc;stroke-width:2.52697968;stroke-linecap:butt;stroke-linejoin:miter;stroke-miterlimit:4;stroke-dasharray:none;stroke-opacity:1" />
    <circle
       r="123.34528"
       cy="176.97693"
       cx="1261.7709"
       id="circle4786"
       style="opacity:0.98000004;fill:none;stroke:#cccccc;stroke-width:17.62074089;stroke-linecap:butt;stroke-linejoin:miter;stroke-miterlimit:4;stroke-dasharray:none;stroke-opacity:1" />
    <circle
       r="107.39896"
       cy="176.97699"
       cx="157.58537"
       id="circle4788"
       style="opacity:0.98000004;fill:none;stroke:#cccccc;stroke-width:2.52697968;stroke-linecap:butt;stroke-linejoin:miter;stroke-miterlimit:4;stroke-dasharray:none;stroke-opacity:1" />
    <circle
       r="123.34528"
       cy="176.97693"
       cx="157.58537"
       id="circle4790"
       style="opacity:0.98000004;fill:none;stroke:#cccccc;stroke-width:17.62074089;stroke-linecap:butt;stroke-linejoin:miter;stroke-miterlimit:4;stroke-dasharray:none;stroke-opacity:1" />
    <path
       inkscape:connector-curvature="0"
       id="path4792"
       d="M 557.37063,28.821441 C 351.79435,557.44599 263.69022,851.12627 263.69022,851.12627"
       style="fill:none;stroke:#b3b3b3;stroke-width:0;stroke-linecap:butt;stroke-linejoin:miter;stroke-miterlimit:4;stroke-dasharray:none;stroke-opacity:1" />
    <path
       inkscape:connector-curvature="0"
       id="path4794"
       d="M 298.93131,862.87581 Z"
       style="fill:none;stroke:#000000;stroke-width:0.82883465px;stroke-linecap:butt;stroke-linejoin:miter;stroke-opacity:1" />
    <path
       inkscape:connector-curvature="0"
       id="path4796"
       d="M 298.93131,862.87581 Z"
       style="fill:none;stroke:#000000;stroke-width:0.82883465px;stroke-linecap:butt;stroke-linejoin:miter;stroke-opacity:1" />
    <path
       inkscape:connector-curvature="0"
       id="path4800"
       d="M 1060.8135,2.5506446 895.60297,192.77152"
       style="fill:none;stroke:#cccccc;stroke-width:18.09300232;stroke-linecap:butt;stroke-linejoin:miter;stroke-miterlimit:4;stroke-dasharray:none;stroke-opacity:1" />
    <path
       inkscape:connector-curvature="0"
       id="path4802"
       d="M 358.55213,2.5564108 520.80256,193.17987"
       style="fill:none;stroke:#cccccc;stroke-width:18.11764717;stroke-linecap:butt;stroke-linejoin:miter;stroke-miterlimit:4;stroke-dasharray:none;stroke-opacity:1" />
    <path
       inkscape:connector-curvature="0"
       id="path4808"
       d="m 645.47475,113.98852 c 0,-44.051749 0,-44.051749 0,-44.051749 L 621.97978,93.43121 Z"
       style="fill:#cccccc;stroke:none" />
    <path
       inkscape:connector-curvature="0"
       id="path4810"
       d="m 770.9469,114.92541 c 0,-44.051638 0,-44.051638 0,-44.051638 l 23.49493,23.493908 z"
       style="fill:#cccccc;stroke:none" />
    <text
       transform="scale(1.011888,0.98825166)"
       sodipodi:linespacing="125%"
       id="text4820"
       y="806.43268"
       x="447.62793"
       style="font-style:normal;font-variant:normal;font-weight:normal;font-stretch:normal;font-size:58.70772552px;line-height:125%;font-family:MoolBoran;-inkscape-font-specification:MoolBoran;text-align:start;letter-spacing:0px;word-spacing:0px;writing-mode:lr-tb;text-anchor:start;fill:#000000;fill-opacity:1;stroke:none"
       xml:space="preserve"><tspan
         y="806.43268"
         x="447.62793"
         id="tspan4822"
         sodipodi:role="line">FX-L</tspan></text>
    <text
       sodipodi:linespacing="125%"
       id="text4828"
       y="796.37653"
       x="884.09204"
       style="font-style:normal;font-variant:normal;font-weight:normal;font-stretch:normal;font-size:58.01810455px;line-height:125%;font-family:MoolBoran;-inkscape-font-specification:MoolBoran;text-align:start;letter-spacing:0px;word-spacing:0px;writing-mode:lr-tb;text-anchor:start;fill:#000000;fill-opacity:1;stroke:none"
       xml:space="preserve"><tspan
         y="796.37653"
         x="884.09204"
         id="tspan4830"
         sodipodi:role="line">FX-R</tspan></text>
    <text
       sodipodi:linespacing="125%"
       id="text4836"
       y="270.86884"
       x="313.87003"
       style="font-style:normal;font-variant:normal;font-weight:normal;font-stretch:normal;font-size:58.01810455px;line-height:125%;font-family:MoolBoran;-inkscape-font-specification:MoolBoran;text-align:start;letter-spacing:0px;word-spacing:0px;writing-mode:lr-tb;text-anchor:start;fill:#000000;fill-opacity:1;stroke:none"
       xml:space="preserve"><tspan
         y="270.86884"
         x="313.87003"
         id="tspan4838"
         sodipodi:role="line">BT-A</tspan></text>
    <text
       sodipodi:linespacing="125%"
       id="text4844"
       y="271.10443"
       x="539.27209"
       style="font-style:normal;font-variant:normal;font-weight:normal;font-stretch:normal;font-size:58.01810455px;line-height:125%;font-family:MoolBoran;-inkscape-font-specification:MoolBoran;text-align:start;letter-spacing:0px;word-spacing:0px;writing-mode:lr-tb;text-anchor:start;fill:#000000;fill-opacity:1;stroke:none"
       xml:space="preserve"><tspan
         y="271.10443"
         x="539.27209"
         id="tspan4846"
         sodipodi:role="line">BT-B</tspan></text>
    <text
       sodipodi:linespacing="125%"
       id="text4852"
       y="271.6441"
       x="793.66138"
       style="font-style:normal;font-variant:normal;font-weight:normal;font-stretch:normal;font-size:58.01810455px;line-height:125%;font-family:MoolBoran;-inkscape-font-specification:MoolBoran;text-align:start;letter-spacing:0px;word-spacing:0px;writing-mode:lr-tb;text-anchor:start;fill:#000000;fill-opacity:1;stroke:none"
       xml:space="preserve"><tspan
         y="271.6441"
         x="793.66138"
         id="tspan4854"
         sodipodi:role="line">BT-C</tspan></text>
    <text
       sodipodi:linespacing="125%"
       id="text4860"
       y="271.85858"
       x="1015.2449"
       style="font-style:normal;font-variant:normal;font-weight:normal;font-stretch:normal;font-size:58.01810455px;line-height:125%;font-family:MoolBoran;-inkscape-font-specification:MoolBoran;text-align:start;letter-spacing:0px;word-spacing:0px;writing-mode:lr-tb;text-anchor:start;fill:#000000;fill-opacity:1;stroke:none"
       xml:space="preserve"><tspan
         y="271.85858"
         x="1015.2449"
         id="tspan4862"
         sodipodi:role="line">BT-D</tspan></text>
    <text
       transform="scale(1.0015561,0.99844631)"
       sodipodi:linespacing="125%"
       id="text4868"
       y="340.78903"
       x="111.06673"
       style="font-style:normal;font-variant:normal;font-weight:normal;font-stretch:normal;font-size:49.1011467px;line-height:125%;font-family:MoolBoran;-inkscape-font-specification:MoolBoran;text-align:start;letter-spacing:0px;word-spacing:0px;writing-mode:lr-tb;text-anchor:start;fill:#000000;fill-opacity:1;stroke:none"
       xml:space="preserve"><tspan
         y="340.78903"
         x="111.06673"
         id="tspan4870"
         sodipodi:role="line">VOL-L</tspan></text>
    <text
       transform="scale(1.0016589,0.99834384)"
       sodipodi:linespacing="125%"
       id="text4876"
       y="340.73444"
       x="1219.3608"
       style="font-style:normal;font-variant:normal;font-weight:normal;font-stretch:normal;font-size:48.70407867px;line-height:125%;font-family:MoolBoran;-inkscape-font-specification:MoolBoran;text-align:start;letter-spacing:0px;word-spacing:0px;writing-mode:lr-tb;text-anchor:start;fill:#000000;fill-opacity:1;stroke:none"
       xml:space="preserve"><tspan
         y="340.73444"
         x="1219.3608"
         id="tspan4878"
         sodipodi:role="line">VOL-R</tspan></text>
    <path
       sodipodi:nodetypes="cccccc"
       inkscape:connector-curvature="0"
       id="path4884"
       d="M 35.41215,217.89252 C 142.33142,716.84958 142.35218,718.93308 142.35218,718.93308 L 283.05828,809.70693 224.32219,604.13067 103.11999,499.68425 42.33154,229.37777"
       style="fill:#cccccc;stroke:#cccccc;stroke-width:0.82883465px;stroke-linecap:butt;stroke-linejoin:miter;stroke-opacity:1" />
    <path
       sodipodi:nodetypes="cccccc"
       inkscape:connector-curvature="0"
       id="path4886"
       d="m 1382.5729,221.00173 c -106.914,498.95708 -106.9387,501.04062 -106.9387,501.04062 l -140.6993,90.7739 58.7308,-205.57638 121.2026,-104.44621 60.7861,-270.3067"
       style="fill:#cccccc;stroke:#cccccc;stroke-width:0.82883465px;stroke-linecap:butt;stroke-linejoin:miter;stroke-opacity:1" />
    <path
       sodipodi:nodetypes="ccccccccccc"
       inkscape:connector-curvature="0"
       id="path4888"
       d="M -4.7026728,377.43141 C 54.620722,688.88003 66.485258,730.40669 66.485258,730.40669 l 207.631972,148.30867 133.47844,0 29.66172,44.49348 29.66172,0 0.18126,0 L 422.5749,866.844 274.11723,866.9917 75.383634,724.47367 4.1961059,374.46611"
       style="fill:#cccccc;stroke:#cccccc;stroke-width:0.83712298px;stroke-linecap:butt;stroke-linejoin:miter;stroke-opacity:1" />
    <path
       sodipodi:nodetypes="ccccccccccc"
       inkscape:connector-curvature="0"
       id="path4890"
       d="m 1420.7129,377.85091 c -59.3282,311.44735 -71.1863,352.97397 -71.1863,352.97397 l -207.6333,148.30864 -133.4828,0 -29.66572,44.49345 -29.65313,0 -0.18701,0 44.52394,-56.36475 148.46472,0.1482 198.7333,-142.51726 71.1798,-350.00886"
       style="fill:#cccccc;stroke:#cccccc;stroke-width:0.83712298px;stroke-linecap:butt;stroke-linejoin:miter;stroke-opacity:1" />
    <path
       inkscape:connector-curvature="0"
       id="path4892"
       d="m 421.21388,876.44307 c 102.78871,0 102.78871,0 102.78871,0 l 29.36804,-29.36798 117.47217,0"
       style="fill:none;stroke:#cccccc;stroke-width:5.87360001;stroke-linecap:butt;stroke-linejoin:miter;stroke-miterlimit:4;stroke-dasharray:none;stroke-opacity:1" />
    <path
       inkscape:connector-curvature="0"
       id="path4894"
       d="m 987.20249,876.44307 c -102.78756,0 -102.78756,0 -102.78756,0 l -29.36058,-29.36798 -117.4755,0"
       style="fill:none;stroke:#cccccc;stroke-width:5.87360001;stroke-linecap:butt;stroke-linejoin:miter;stroke-miterlimit:4;stroke-dasharray:none;stroke-opacity:1" />
    <path
       inkscape:connector-curvature="0"
       id="path4896"
       d="m 683.65308,850.01222 c 41.1155,0 41.1155,0 41.1155,0 l -20.5578,-20.55762 z"
       style="fill:#cccccc;stroke:#cccccc;stroke-width:0.82883465px;stroke-linecap:butt;stroke-linejoin:miter;stroke-opacity:1" />
    <path
       sodipodi:nodetypes="cccc"
       inkscape:connector-curvature="0"
       id="path4898"
       d="m 421.21388,891.12627 c 102.78871,0 102.78871,0 102.78871,0 l 29.36804,29.36975 -29.2822,-29.26419"
       style="fill:none;stroke:#cccccc;stroke-width:5.87360001;stroke-linecap:butt;stroke-linejoin:miter;stroke-miterlimit:4;stroke-dasharray:none;stroke-opacity:1" />
    <path
       sodipodi:nodetypes="cccc"
       inkscape:connector-curvature="0"
       id="path4900"
       d="m 987.6203,891.12627 c -102.78993,0 -102.78993,0 -102.78993,0 l -29.37142,29.36975 29.28336,-29.26419"
       style="fill:none;stroke:#cccccc;stroke-width:5.87360001;stroke-linecap:butt;stroke-linejoin:miter;stroke-miterlimit:4;stroke-dasharray:none;stroke-opacity:1" />
    <text
       sodipodi:linespacing="125%"
       id="text4902"
       y="894.4455"
       x="589.99188"
       style="font-style:normal;font-variant:normal;font-weight:normal;font-stretch:normal;font-size:49.8989563px;line-height:125%;font-family:MoolBoran;-inkscape-font-specification:MoolBoran;text-align:start;letter-spacing:0px;word-spacing:0px;writing-mode:lr-tb;text-anchor:start;fill:#000000;fill-opacity:1;stroke:none"
       xml:space="preserve"><tspan
         y="894.4455"
         x="589.99188"
         id="tspan4904"
         sodipodi:role="line">SOUND VOLTEX</tspan></text>
    <rect
       style="opacity:1;fill:#cccccc;fill-opacity:1;stroke:#ff0000;stroke-width:0;stroke-miterlimit:10;stroke-dasharray:none;stroke-opacity:1"
       id="rect4961"
       width="865.00006"
       height="47"
       x="275.49991"
       y="158.88387" />
  </g>
  <g
     inkscape:label="Layer 1"
     inkscape:groupmode="layer"
     id="layer1"
     transform="translate(0,-130.97835)"
     sodipodi:insensitive="true">
    <g
       transform="matrix(1.25,0,0,-1.25,0.02559127,1052.7429)"
       inkscape:label="sdvx_top-drawing"
       id="g5077">
      <g
         id="g5079">
        <g
           clip-path="url(#clipPath5083)"
           id="g5081">
          <g
             transform="matrix(1e-4,1,-1,1e-4,26.9325,482.42249)"
             id="g5087">
            <path
               inkscape:connector-curvature="0"
               id="path5089"
               style="fill:none;stroke:#000000;stroke-width:0.70499998;stroke-linecap:round;stroke-linejoin:round;stroke-miterlimit:10;stroke-dasharray:none;stroke-opacity:1"
               d="m 4.3875,0 c 0,2.42307 -1.96422,4.38738 -4.38729,4.3875 -2.42307,1.2e-4 -4.38748,-1.96401 -4.38771,-4.38708 -2.3e-4,-2.42307 1.9638,-4.38757 4.38687,-4.38792 2.42307,-3.5e-4 4.38767,1.96359 4.38813,4.38666" />
          </g>
          <g
             transform="matrix(1e-4,1,-1,1e-4,26.9325,254.67749)"
             id="g5091">
            <path
               inkscape:connector-curvature="0"
               id="path5093"
               style="fill:none;stroke:#000000;stroke-width:0.70499998;stroke-linecap:round;stroke-linejoin:round;stroke-miterlimit:10;stroke-dasharray:none;stroke-opacity:1"
               d="m 4.3875,0 c 0,2.42307 -1.96422,4.38738 -4.38729,4.3875 -2.42307,1.2e-4 -4.38748,-1.96401 -4.38771,-4.38708 -2.3e-4,-2.42307 1.9638,-4.38757 4.38687,-4.38792 2.42307,-3.5e-4 4.38767,1.96359 4.38813,4.38666" />
          </g>
          <g
             transform="matrix(1e-4,1,-1,1e-4,1106.9325,482.42249)"
             id="g5095">
            <path
               inkscape:connector-curvature="0"
               id="path5097"
               style="fill:none;stroke:#000000;stroke-width:0.70499998;stroke-linecap:round;stroke-linejoin:round;stroke-miterlimit:10;stroke-dasharray:none;stroke-opacity:1"
               d="m 4.3875,0 c 0,2.42307 -1.96422,4.38738 -4.38729,4.3875 -2.42307,1.2e-4 -4.38748,-1.96401 -4.38771,-4.38708 -2.3e-4,-2.42307 1.9638,-4.38757 4.38687,-4.38792 2.42307,-3.5e-4 4.38767,1.96359 4.38813,4.38666" />
          </g>
          <g
             transform="matrix(1e-4,1,-1,1e-4,1106.9325,254.67749)"
             id="g5099">
            <path
               inkscape:connector-curvature="0"
               id="path5101"
               style="fill:none;stroke:#000000;stroke-width:0.70499998;stroke-linecap:round;stroke-linejoin:round;stroke-miterlimit:10;stroke-dasharray:none;stroke-opacity:1"
               d="m 4.3875,0 c 0,2.42307 -1.96422,4.38738 -4.38729,4.3875 -2.42307,1.2e-4 -4.38748,-1.96401 -4.38771,-4.38708 -2.3e-4,-2.42307 1.9638,-4.38757 4.38687,-4.38792 2.42307,-3.5e-4 4.38767,1.96359 4.38813,4.38666" />
          </g>
          <g
             transform="matrix(1e-4,1,-1,1e-4,1106.9325,26.9325)"
             id="g5103">
            <path
               inkscape:connector-curvature="0"
               id="path5105"
               style="fill:none;stroke:#000000;stroke-width:0.70499998;stroke-linecap:round;stroke-linejoin:round;stroke-miterlimit:10;stroke-dasharray:none;stroke-opacity:1"
               d="m 4.3875,0 c 0,2.42307 -1.96422,4.38738 -4.38729,4.3875 -2.42307,1.2e-4 -4.38748,-1.96401 -4.38771,-4.38708 -2.3e-4,-2.42307 1.9638,-4.38757 4.38687,-4.38792 2.42307,-3.5e-4 4.38767,1.96359 4.38813,4.38666" />
          </g>
          <g
             transform="matrix(1e-4,1,-1,1e-4,890.9325,26.9325)"
             id="g5107">
            <path
               inkscape:connector-curvature="0"
               id="path5109"
               style="fill:none;stroke:#000000;stroke-width:0.70499998;stroke-linecap:round;stroke-linejoin:round;stroke-miterlimit:10;stroke-dasharray:none;stroke-opacity:1"
               d="m 4.3875,0 c 0,2.42307 -1.96422,4.38738 -4.38729,4.3875 -2.42307,1.2e-4 -4.38748,-1.96401 -4.38771,-4.38708 -2.3e-4,-2.42307 1.9638,-4.38757 4.38687,-4.38792 2.42307,-3.5e-4 4.38767,1.96359 4.38813,4.38666" />
          </g>
          <g
             transform="matrix(1e-4,1,-1,1e-4,674.9325,26.9325)"
             id="g5111">
            <path
               inkscape:connector-curvature="0"
               id="path5113"
               style="fill:none;stroke:#000000;stroke-width:0.70499998;stroke-linecap:round;stroke-linejoin:round;stroke-miterlimit:10;stroke-dasharray:none;stroke-opacity:1"
               d="m 4.3875,0 c 0,2.42307 -1.96422,4.38738 -4.38729,4.3875 -2.42307,1.2e-4 -4.38748,-1.96401 -4.38771,-4.38708 -2.3e-4,-2.42307 1.9638,-4.38757 4.38687,-4.38792 2.42307,-3.5e-4 4.38767,1.96359 4.38813,4.38666" />
          </g>
          <g
             transform="matrix(1e-4,1,-1,1e-4,458.9325,26.9325)"
             id="g5115">
            <path
               inkscape:connector-curvature="0"
               id="path5117"
               style="fill:none;stroke:#000000;stroke-width:0.70499998;stroke-linecap:round;stroke-linejoin:round;stroke-miterlimit:10;stroke-dasharray:none;stroke-opacity:1"
               d="m 4.3875,0 c 0,2.42307 -1.96422,4.38738 -4.38729,4.3875 -2.42307,1.2e-4 -4.38748,-1.96401 -4.38771,-4.38708 -2.3e-4,-2.42307 1.9638,-4.38757 4.38687,-4.38792 2.42307,-3.5e-4 4.38767,1.96359 4.38813,4.38666" />
          </g>
          <g
             transform="matrix(1e-4,1,-1,1e-4,242.9325,26.9325)"
             id="g5119">
            <path
               inkscape:connector-curvature="0"
               id="path5121"
               style="fill:none;stroke:#000000;stroke-width:0.70499998;stroke-linecap:round;stroke-linejoin:round;stroke-miterlimit:10;stroke-dasharray:none;stroke-opacity:1"
               d="m 4.3875,0 c 0,2.42307 -1.96422,4.38738 -4.38729,4.3875 -2.42307,1.2e-4 -4.38748,-1.96401 -4.38771,-4.38708 -2.3e-4,-2.42307 1.9638,-4.38757 4.38687,-4.38792 2.42307,-3.5e-4 4.38767,1.96359 4.38813,4.38666" />
          </g>
          <g
             transform="matrix(1e-4,1,-1,1e-4,26.9325,26.9325)"
             id="g5123">
            <path
               inkscape:connector-curvature="0"
               id="path5125"
               style="fill:none;stroke:#000000;stroke-width:0.70499998;stroke-linecap:round;stroke-linejoin:round;stroke-miterlimit:10;stroke-dasharray:none;stroke-opacity:1"
               d="m 4.3875,0 c 0,2.42307 -1.96422,4.38738 -4.38729,4.3875 -2.42307,1.2e-4 -4.38748,-1.96401 -4.38771,-4.38708 -2.3e-4,-2.42307 1.9638,-4.38757 4.38687,-4.38792 2.42307,-3.5e-4 4.38767,1.96359 4.38813,4.38666" />
          </g>
          <g
             transform="matrix(1e-4,1,-1,1e-4,1106.9325,710.1825)"
             id="g5127">
            <path
               inkscape:connector-curvature="0"
               id="path5129"
               style="fill:none;stroke:#000000;stroke-width:0.70499998;stroke-linecap:round;stroke-linejoin:round;stroke-miterlimit:10;stroke-dasharray:none;stroke-opacity:1"
               d="m 4.3875,0 c 0,2.42307 -1.96422,4.38738 -4.38729,4.3875 -2.42307,1.2e-4 -4.38748,-1.96401 -4.38771,-4.38708 -2.3e-4,-2.42307 1.9638,-4.38757 4.38687,-4.38792 2.42307,-3.5e-4 4.38767,1.96359 4.38813,4.38666" />
          </g>
          <g
             transform="matrix(1e-4,1,-1,1e-4,890.9325,710.1825)"
             id="g5131">
            <path
               inkscape:connector-curvature="0"
               id="path5133"
               style="fill:none;stroke:#000000;stroke-width:0.70499998;stroke-linecap:round;stroke-linejoin:round;stroke-miterlimit:10;stroke-dasharray:none;stroke-opacity:1"
               d="m 4.3875,0 c 0,2.42307 -1.96422,4.38738 -4.38729,4.3875 -2.42307,1.2e-4 -4.38748,-1.96401 -4.38771,-4.38708 -2.3e-4,-2.42307 1.9638,-4.38757 4.38687,-4.38792 2.42307,-3.5e-4 4.38767,1.96359 4.38813,4.38666" />
          </g>
          <g
             transform="matrix(1e-4,1,-1,1e-4,674.9325,710.1825)"
             id="g5135">
            <path
               inkscape:connector-curvature="0"
               id="path5137"
               style="fill:none;stroke:#000000;stroke-width:0.70499998;stroke-linecap:round;stroke-linejoin:round;stroke-miterlimit:10;stroke-dasharray:none;stroke-opacity:1"
               d="m 4.3875,0 c 0,2.42307 -1.96422,4.38738 -4.38729,4.3875 -2.42307,1.2e-4 -4.38748,-1.96401 -4.38771,-4.38708 -2.3e-4,-2.42307 1.9638,-4.38757 4.38687,-4.38792 2.42307,-3.5e-4 4.38767,1.96359 4.38813,4.38666" />
          </g>
          <g
             transform="matrix(1e-4,1,-1,1e-4,458.9325,710.1825)"
             id="g5139">
            <path
               inkscape:connector-curvature="0"
               id="path5141"
               style="fill:none;stroke:#000000;stroke-width:0.70499998;stroke-linecap:round;stroke-linejoin:round;stroke-miterlimit:10;stroke-dasharray:none;stroke-opacity:1"
               d="m 4.3875,0 c 0,2.42307 -1.96422,4.38738 -4.38729,4.3875 -2.42307,1.2e-4 -4.38748,-1.96401 -4.38771,-4.38708 -2.3e-4,-2.42307 1.9638,-4.38757 4.38687,-4.38792 2.42307,-3.5e-4 4.38767,1.96359 4.38813,4.38666" />
          </g>
          <g
             transform="matrix(1e-4,1,-1,1e-4,242.9325,710.1825)"
             id="g5143">
            <path
               inkscape:connector-curvature="0"
               id="path5145"
               style="fill:none;stroke:#000000;stroke-width:0.70499998;stroke-linecap:round;stroke-linejoin:round;stroke-miterlimit:10;stroke-dasharray:none;stroke-opacity:1"
               d="m 4.3875,0 c 0,2.42307 -1.96422,4.38738 -4.38729,4.3875 -2.42307,1.2e-4 -4.38748,-1.96401 -4.38771,-4.38708 -2.3e-4,-2.42307 1.9638,-4.38757 4.38687,-4.38792 2.42307,-3.5e-4 4.38767,1.96359 4.38813,4.38666" />
          </g>
          <g
             transform="matrix(1e-4,1,-1,1e-4,1008.5625,596.51245)"
             id="g5147">
            <path
               inkscape:connector-curvature="0"
               id="path5149"
               style="fill:none;stroke:#000000;stroke-width:0.70499998;stroke-linecap:round;stroke-linejoin:round;stroke-miterlimit:10;stroke-dasharray:none;stroke-opacity:1"
               d="m 28.3425,0 c 0,15.6526 -12.68854,28.34175 -28.34114,28.3425 -15.6526,7.5e-4 -28.34236,-12.68718 -28.34386,-28.33978 -0.0015,-15.6526 12.68582,-28.34297 28.33842,-28.34522 15.6526,-0.0023 28.34358,12.68446 28.34658,28.33707" />
          </g>
          <g
             transform="matrix(1e-4,1,-1,1e-4,1042.9425,576.66748)"
             id="g5151">
            <path
               inkscape:connector-curvature="0"
               id="path5153"
               style="fill:none;stroke:#000000;stroke-width:0.70499998;stroke-linecap:round;stroke-linejoin:round;stroke-miterlimit:10;stroke-dasharray:none;stroke-opacity:1"
               d="m 4.8225,0 c 0,2.6633 -2.15897,4.82237 -4.82227,4.8225 -2.6633,1.3e-4 -4.82247,-2.15873 -4.82273,-4.82204 -2.6e-4,-2.6633 2.1585,-4.82258 4.82181,-4.82296 2.6633,-3.8e-4 4.82268,2.15827 4.82319,4.82158" />
          </g>
          <g
             transform="matrix(1e-4,1,-1,1e-4,1008.5625,596.51245)"
             id="g5155">
            <path
               inkscape:connector-curvature="0"
               id="path5157"
               style="fill:none;stroke:#000000;stroke-width:0.70499998;stroke-linecap:round;stroke-linejoin:round;stroke-miterlimit:10;stroke-dasharray:none;stroke-opacity:1"
               d="m 28.3425,0 c 0,15.6526 -12.68854,28.34175 -28.34114,28.3425 -15.6526,7.5e-4 -28.34236,-12.68718 -28.34386,-28.33978 -0.0015,-15.6526 12.68582,-28.34297 28.33842,-28.34522 15.6526,-0.0023 28.34358,12.68446 28.34658,28.33707" />
          </g>
          <g
             transform="matrix(1e-4,1,-1,1e-4,974.19751,576.66748)"
             id="g5159">
            <path
               inkscape:connector-curvature="0"
               id="path5161"
               style="fill:none;stroke:#000000;stroke-width:0.70499998;stroke-linecap:round;stroke-linejoin:round;stroke-miterlimit:10;stroke-dasharray:none;stroke-opacity:1"
               d="m 4.8225,0 c 0,2.6633 -2.15897,4.82237 -4.82227,4.8225 -2.6633,1.3e-4 -4.82247,-2.15873 -4.82273,-4.82204 -2.6e-4,-2.6633 2.1585,-4.82258 4.82181,-4.82296 2.6633,-3.8e-4 4.82268,2.15827 4.82319,4.82158" />
          </g>
          <g
             transform="matrix(1e-4,1,-1,1e-4,1008.5625,636.1875)"
             id="g5163">
            <path
               inkscape:connector-curvature="0"
               id="path5165"
               style="fill:none;stroke:#000000;stroke-width:0.70499998;stroke-linecap:round;stroke-linejoin:round;stroke-miterlimit:10;stroke-dasharray:none;stroke-opacity:1"
               d="m 4.8225,0 c 0,2.6633 -2.15897,4.82237 -4.82227,4.8225 -2.6633,1.3e-4 -4.82247,-2.15873 -4.82273,-4.82204 -2.6e-4,-2.6633 2.1585,-4.82258 4.82181,-4.82296 2.6633,-3.8e-4 4.82268,2.15827 4.82319,4.82158" />
          </g>
          <g
             transform="matrix(1e-4,1,-1,1e-4,159.6525,576.66748)"
             id="g5167">
            <path
               inkscape:connector-curvature="0"
               id="path5169"
               style="fill:none;stroke:#000000;stroke-width:0.70499998;stroke-linecap:round;stroke-linejoin:round;stroke-miterlimit:10;stroke-dasharray:none;stroke-opacity:1"
               d="m 4.8225,0 c 0,2.6633 -2.15897,4.82237 -4.82227,4.8225 -2.6633,1.3e-4 -4.82247,-2.15873 -4.82273,-4.82204 -2.6e-4,-2.6633 2.1585,-4.82258 4.82181,-4.82296 2.6633,-3.8e-4 4.82268,2.15827 4.82319,4.82158" />
          </g>
          <g
             transform="matrix(1e-4,1,-1,1e-4,125.28751,596.51245)"
             id="g5171">
            <path
               inkscape:connector-curvature="0"
               id="path5173"
               style="fill:none;stroke:#000000;stroke-width:0.70499998;stroke-linecap:round;stroke-linejoin:round;stroke-miterlimit:10;stroke-dasharray:none;stroke-opacity:1"
               d="m 28.3425,0 c 0,15.6526 -12.68854,28.34175 -28.34114,28.3425 -15.6526,7.5e-4 -28.34236,-12.68718 -28.34386,-28.33978 -0.0015,-15.6526 12.68582,-28.34297 28.33842,-28.34522 15.6526,-0.0023 28.34358,12.68446 28.34658,28.33707" />
          </g>
          <g
             transform="matrix(1e-4,1,-1,1e-4,90.9225,576.66748)"
             id="g5175">
            <path
               inkscape:connector-curvature="0"
               id="path5177"
               style="fill:none;stroke:#000000;stroke-width:0.70499998;stroke-linecap:round;stroke-linejoin:round;stroke-miterlimit:10;stroke-dasharray:none;stroke-opacity:1"
               d="m 4.8225,0 c 0,2.6633 -2.15897,4.82237 -4.82227,4.8225 -2.6633,1.3e-4 -4.82247,-2.15873 -4.82273,-4.82204 -2.6e-4,-2.6633 2.1585,-4.82258 4.82181,-4.82296 2.6633,-3.8e-4 4.82268,2.15827 4.82319,4.82158" />
          </g>
          <g
             transform="matrix(1e-4,1,-1,1e-4,125.28751,596.51245)"
             id="g5179">
            <path
               inkscape:connector-curvature="0"
               id="path5181"
               style="fill:none;stroke:#000000;stroke-width:0.70499998;stroke-linecap:round;stroke-linejoin:round;stroke-miterlimit:10;stroke-dasharray:none;stroke-opacity:1"
               d="m 28.3425,0 c 0,15.6526 -12.68854,28.34175 -28.34114,28.3425 -15.6526,7.5e-4 -28.34236,-12.68718 -28.34386,-28.33978 -0.0015,-15.6526 12.68582,-28.34297 28.33842,-28.34522 15.6526,-0.0023 28.34358,12.68446 28.34658,28.33707" />
          </g>
          <g
             transform="matrix(1e-4,1,-1,1e-4,125.2875,636.1875)"
             id="g5183">
            <path
               inkscape:connector-curvature="0"
               id="path5185"
               style="fill:none;stroke:#000000;stroke-width:0.70499998;stroke-linecap:round;stroke-linejoin:round;stroke-miterlimit:10;stroke-dasharray:none;stroke-opacity:1"
               d="m 4.8225,0 c 0,2.6633 -2.15897,4.82237 -4.82227,4.8225 -2.6633,1.3e-4 -4.82247,-2.15873 -4.82273,-4.82204 -2.6e-4,-2.6633 2.1585,-4.82258 4.82181,-4.82296 2.6633,-3.8e-4 4.82268,2.15827 4.82319,4.82158" />
          </g>
          <g
             transform="matrix(1e-4,1,-1,1e-4,26.9325,710.1825)"
             id="g5187">
            <path
               inkscape:connector-curvature="0"
               id="path5189"
               style="fill:none;stroke:#000000;stroke-width:0.70499998;stroke-linecap:round;stroke-linejoin:round;stroke-miterlimit:10;stroke-dasharray:none;stroke-opacity:1"
               d="m 4.3875,0 c 0,2.42307 -1.96422,4.38738 -4.38729,4.3875 -2.42307,1.2e-4 -4.38748,-1.96401 -4.38771,-4.38708 -2.3e-4,-2.42307 1.9638,-4.38757 4.38687,-4.38792 2.42307,-3.5e-4 4.38767,1.96359 4.38813,4.38666" />
          </g>
          <g
             transform="matrix(1e-4,1,-1,1e-4,1008.5625,596.51245)"
             id="g5191">
            <path
               inkscape:connector-curvature="0"
               id="path5193"
               style="fill:none;stroke:#000000;stroke-width:0.70499998;stroke-linecap:round;stroke-linejoin:round;stroke-miterlimit:10;stroke-dasharray:none;stroke-opacity:1"
               d="m 28.3425,0 c 0,15.6526 -12.68854,28.34175 -28.34114,28.3425 -15.6526,7.5e-4 -28.34236,-12.68718 -28.34386,-28.33978 -0.0015,-15.6526 12.68582,-28.34297 28.33842,-28.34522 15.6526,-0.0023 28.34358,12.68446 28.34658,28.33707" />
          </g>
          <g
             transform="matrix(1e-4,1,-1,1e-4,125.28751,596.51245)"
             id="g5195">
            <path
               inkscape:connector-curvature="0"
               id="path5197"
               style="fill:none;stroke:#000000;stroke-width:0.70499998;stroke-linecap:round;stroke-linejoin:round;stroke-miterlimit:10;stroke-dasharray:none;stroke-opacity:1"
               d="m 28.3425,0 c 0,15.6526 -12.68854,28.34175 -28.34114,28.3425 -15.6526,7.5e-4 -28.34236,-12.68718 -28.34386,-28.33978 -0.0015,-15.6526 12.68582,-28.34297 28.33842,-28.34522 15.6526,-0.0023 28.34358,12.68446 28.34658,28.33707" />
          </g>
          <path
             inkscape:connector-curvature="0"
             id="path5199"
             style="fill:none;stroke:#000000;stroke-width:0.70499998;stroke-linecap:round;stroke-linejoin:round;stroke-miterlimit:10;stroke-dasharray:none;stroke-opacity:1"
             d="m 676.91998,171.88499 127.54505,0 0,80.50501 -127.54505,0 0,-80.50501" />
          <path
             inkscape:connector-curvature="0"
             id="path5201"
             style="fill:none;stroke:#000000;stroke-width:0.70499998;stroke-linecap:round;stroke-linejoin:round;stroke-miterlimit:10;stroke-dasharray:none;stroke-opacity:1"
             d="m 456.94501,171.88499 -127.56,0 0,80.50501 127.56,0 0,-80.50501" />
          <path
             inkscape:connector-curvature="0"
             id="path5203"
             style="fill:none;stroke:#000000;stroke-width:0.70499998;stroke-linecap:round;stroke-linejoin:round;stroke-miterlimit:10;stroke-dasharray:none;stroke-opacity:1"
             d="m 526.39502,616.34998 81.07495,0 0,81.07501 -81.07495,0 0,-81.07501" />
          <path
             inkscape:connector-curvature="0"
             id="path5205"
             style="fill:none;stroke:#000000;stroke-width:0.70499998;stroke-linecap:round;stroke-linejoin:round;stroke-miterlimit:10;stroke-dasharray:none;stroke-opacity:1"
             d="m 786.33002,337.42499 159.86999,0 0,159.87002 -159.86999,0 0,-159.87002" />
          <path
             inkscape:connector-curvature="0"
             id="path5207"
             style="fill:none;stroke:#000000;stroke-width:0.70499998;stroke-linecap:round;stroke-linejoin:round;stroke-miterlimit:10;stroke-dasharray:none;stroke-opacity:1"
             d="m 586.77002,337.42499 159.86999,0 0,159.87002 -159.86999,0 0,-159.87002" />
          <path
             inkscape:connector-curvature="0"
             id="path5209"
             style="fill:none;stroke:#000000;stroke-width:0.70499998;stroke-linecap:round;stroke-linejoin:round;stroke-miterlimit:10;stroke-dasharray:none;stroke-opacity:1"
             d="m 387.20999,337.42499 159.87003,0 0,159.87002 -159.87003,0 0,-159.87002" />
          <path
             inkscape:connector-curvature="0"
             id="path5211"
             style="fill:none;stroke:#000000;stroke-width:0.70499998;stroke-linecap:round;stroke-linejoin:round;stroke-miterlimit:10;stroke-dasharray:none;stroke-opacity:1"
             d="m 187.64999,337.42499 159.88501,0 0,159.87002 -159.88501,0 0,-159.87002" />
          <path
             inkscape:connector-curvature="0"
             id="path5213"
             style="fill:none;stroke:#000000;stroke-width:0.70499998;stroke-linecap:round;stroke-linejoin:round;stroke-miterlimit:10;stroke-dasharray:none;stroke-opacity:1"
             d="M 1133.865,737.09998 1133.865,0 0,0" />
        </g>
      </g>
    </g>
  </g>
</svg>
