<?xml version="1.0" encoding="UTF-8" standalone="no"?>
<!-- Created with Inkscape (http://www.inkscape.org/) -->

<svg
   xmlns:dc="http://purl.org/dc/elements/1.1/"
   xmlns:cc="http://creativecommons.org/ns#"
   xmlns:rdf="http://www.w3.org/1999/02/22-rdf-syntax-ns#"
   xmlns:svg="http://www.w3.org/2000/svg"
   xmlns="http://www.w3.org/2000/svg"
   xmlns:sodipodi="http://sodipodi.sourceforge.net/DTD/sodipodi-0.dtd"
   xmlns:inkscape="http://www.inkscape.org/namespaces/inkscape"
   width="400.04001mm"
   height="260.04001mm"
   viewBox="0 0 1417.4646 921.40159"
   id="svg4258"
   version="1.1"
   inkscape:version="0.91 r13725"
   sodipodi:docname="sdvx_middle_cut.svg">
  <defs
     id="defs4260">
    <clipPath
       id="clipPath4820"
       clipPathUnits="userSpaceOnUse">
      <path
         inkscape:connector-curvature="0"
         id="path4822"
         d="m 0,0 0,1105.665 1700.79,0 L 1700.79,0 0,0" />
    </clipPath>
  </defs>
  <sodipodi:namedview
     id="base"
     pagecolor="#ffffff"
     bordercolor="#666666"
     borderopacity="1.0"
     inkscape:pageopacity="0.0"
     inkscape:pageshadow="2"
     inkscape:zoom="1"
     inkscape:cx="694.09037"
     inkscape:cy="571.54357"
     inkscape:document-units="px"
     inkscape:current-layer="layer1"
     showgrid="false"
     width="400mm"
     inkscape:window-width="1920"
     inkscape:window-height="1018"
     inkscape:window-x="-8"
     inkscape:window-y="154"
     inkscape:window-maximized="1" />
  <metadata
     id="metadata4263">
    <rdf:RDF>
      <cc:Work
         rdf:about="">
        <dc:format>image/svg+xml</dc:format>
        <dc:type
           rdf:resource="http://purl.org/dc/dcmitype/StillImage" />
        <dc:title></dc:title>
      </cc:Work>
    </rdf:RDF>
  </metadata>
  <g
     inkscape:label="Layer 1"
     inkscape:groupmode="layer"
     id="layer1"
     transform="translate(0,-130.96068)">
    <g
       transform="matrix(1.2500001,0,0,-1.2500001,-0.26714135,1052.8963)"
       inkscape:label="sdvx_middle"
       id="g4814">
      <g
         id="g4816">
        <g
           clip-path="url(#clipPath4820)"
           id="g4818">
          <g
             transform="matrix(1e-4,1,-1,1e-4,26.9325,539.1225)"
             id="g4824">
            <path
               inkscape:connector-curvature="0"
               id="path4826"
               style="fill:none;stroke:#000000;stroke-width:0.70499998;stroke-linecap:round;stroke-linejoin:round;stroke-miterlimit:10;stroke-dasharray:none;stroke-opacity:1"
               d="m 4.3875,0 c 0,2.42307 -1.96422,4.38738 -4.38729,4.3875 -2.42307,1.2e-4 -4.38748,-1.96401 -4.38771,-4.38708 -2.3e-4,-2.42307 1.9638,-4.38757 4.38687,-4.38792 2.42307,-3.5e-4 4.38767,1.96359 4.38813,4.38666" />
          </g>
          <g
             transform="matrix(1e-4,1,-1,1e-4,26.9325,283.02753)"
             id="g4828">
            <path
               inkscape:connector-curvature="0"
               id="path4830"
               style="fill:none;stroke:#000000;stroke-width:0.70499998;stroke-linecap:round;stroke-linejoin:round;stroke-miterlimit:10;stroke-dasharray:none;stroke-opacity:1"
               d="m 4.3875,0 c 0,2.42307 -1.96422,4.38738 -4.38729,4.3875 -2.42307,1.2e-4 -4.38748,-1.96401 -4.38771,-4.38708 -2.3e-4,-2.42307 1.9638,-4.38757 4.38687,-4.38792 2.42307,-3.5e-4 4.38767,1.96359 4.38813,4.38666" />
          </g>
          <g
             transform="matrix(1e-4,1,-1,1e-4,1106.9325,482.42249)"
             id="g4832">
            <path
               inkscape:connector-curvature="0"
               id="path4834"
               style="fill:none;stroke:#000000;stroke-width:0.70499998;stroke-linecap:round;stroke-linejoin:round;stroke-miterlimit:10;stroke-dasharray:none;stroke-opacity:1"
               d="m 4.3875,0 c 0,2.42307 -1.96422,4.38738 -4.38729,4.3875 -2.42307,1.2e-4 -4.38748,-1.96401 -4.38771,-4.38708 -2.3e-4,-2.42307 1.9638,-4.38757 4.38687,-4.38792 2.42307,-3.5e-4 4.38767,1.96359 4.38813,4.38666" />
          </g>
          <g
             transform="matrix(1e-4,1,-1,1e-4,1106.9325,254.67749)"
             id="g4836">
            <path
               inkscape:connector-curvature="0"
               id="path4838"
               style="fill:none;stroke:#000000;stroke-width:0.70499998;stroke-linecap:round;stroke-linejoin:round;stroke-miterlimit:10;stroke-dasharray:none;stroke-opacity:1"
               d="m 4.3875,0 c 0,2.42307 -1.96422,4.38738 -4.38729,4.3875 -2.42307,1.2e-4 -4.38748,-1.96401 -4.38771,-4.38708 -2.3e-4,-2.42307 1.9638,-4.38757 4.38687,-4.38792 2.42307,-3.5e-4 4.38767,1.96359 4.38813,4.38666" />
          </g>
          <g
             transform="matrix(1e-4,1,-1,1e-4,1106.9325,26.9325)"
             id="g4840">
            <path
               inkscape:connector-curvature="0"
               id="path4842"
               style="fill:none;stroke:#000000;stroke-width:0.70499998;stroke-linecap:round;stroke-linejoin:round;stroke-miterlimit:10;stroke-dasharray:none;stroke-opacity:1"
               d="m 4.3875,0 c 0,2.42307 -1.96422,4.38738 -4.38729,4.3875 -2.42307,1.2e-4 -4.38748,-1.96401 -4.38771,-4.38708 -2.3e-4,-2.42307 1.9638,-4.38757 4.38687,-4.38792 2.42307,-3.5e-4 4.38767,1.96359 4.38813,4.38666" />
          </g>
          <g
             transform="matrix(1e-4,1,-1,1e-4,890.9325,26.9325)"
             id="g4844">
            <path
               inkscape:connector-curvature="0"
               id="path4846"
               style="fill:none;stroke:#000000;stroke-width:0.70499998;stroke-linecap:round;stroke-linejoin:round;stroke-miterlimit:10;stroke-dasharray:none;stroke-opacity:1"
               d="m 4.3875,0 c 0,2.42307 -1.96422,4.38738 -4.38729,4.3875 -2.42307,1.2e-4 -4.38748,-1.96401 -4.38771,-4.38708 -2.3e-4,-2.42307 1.9638,-4.38757 4.38687,-4.38792 2.42307,-3.5e-4 4.38767,1.96359 4.38813,4.38666" />
          </g>
          <g
             transform="matrix(1e-4,1,-1,1e-4,674.9325,26.9325)"
             id="g4848">
            <path
               inkscape:connector-curvature="0"
               id="path4850"
               style="fill:none;stroke:#000000;stroke-width:0.70499998;stroke-linecap:round;stroke-linejoin:round;stroke-miterlimit:10;stroke-dasharray:none;stroke-opacity:1"
               d="m 4.3875,0 c 0,2.42307 -1.96422,4.38738 -4.38729,4.3875 -2.42307,1.2e-4 -4.38748,-1.96401 -4.38771,-4.38708 -2.3e-4,-2.42307 1.9638,-4.38757 4.38687,-4.38792 2.42307,-3.5e-4 4.38767,1.96359 4.38813,4.38666" />
          </g>
          <g
             transform="matrix(1e-4,1,-1,1e-4,458.9325,26.9325)"
             id="g4852">
            <path
               inkscape:connector-curvature="0"
               id="path4854"
               style="fill:none;stroke:#000000;stroke-width:0.70499998;stroke-linecap:round;stroke-linejoin:round;stroke-miterlimit:10;stroke-dasharray:none;stroke-opacity:1"
               d="m 4.3875,0 c 0,2.42307 -1.96422,4.38738 -4.38729,4.3875 -2.42307,1.2e-4 -4.38748,-1.96401 -4.38771,-4.38708 -2.3e-4,-2.42307 1.9638,-4.38757 4.38687,-4.38792 2.42307,-3.5e-4 4.38767,1.96359 4.38813,4.38666" />
          </g>
          <g
             transform="matrix(1e-4,1,-1,1e-4,242.9325,26.9325)"
             id="g4856">
            <path
               inkscape:connector-curvature="0"
               id="path4858"
               style="fill:none;stroke:#000000;stroke-width:0.70499998;stroke-linecap:round;stroke-linejoin:round;stroke-miterlimit:10;stroke-dasharray:none;stroke-opacity:1"
               d="m 4.3875,0 c 0,2.42307 -1.96422,4.38738 -4.38729,4.3875 -2.42307,1.2e-4 -4.38748,-1.96401 -4.38771,-4.38708 -2.3e-4,-2.42307 1.9638,-4.38757 4.38687,-4.38792 2.42307,-3.5e-4 4.38767,1.96359 4.38813,4.38666" />
          </g>
          <g
             transform="matrix(1e-4,1,-1,1e-4,26.9325,26.9325)"
             id="g4860">
            <path
               inkscape:connector-curvature="0"
               id="path4862"
               style="fill:none;stroke:#000000;stroke-width:0.70499998;stroke-linecap:round;stroke-linejoin:round;stroke-miterlimit:10;stroke-dasharray:none;stroke-opacity:1"
               d="m 4.3875,0 c 0,2.42307 -1.96422,4.38738 -4.38729,4.3875 -2.42307,1.2e-4 -4.38748,-1.96401 -4.38771,-4.38708 -2.3e-4,-2.42307 1.9638,-4.38757 4.38687,-4.38792 2.42307,-3.5e-4 4.38767,1.96359 4.38813,4.38666" />
          </g>
          <g
             transform="matrix(1e-4,1,-1,1e-4,1106.9325,710.1825)"
             id="g4864">
            <path
               inkscape:connector-curvature="0"
               id="path4866"
               style="fill:none;stroke:#000000;stroke-width:0.70499998;stroke-linecap:round;stroke-linejoin:round;stroke-miterlimit:10;stroke-dasharray:none;stroke-opacity:1"
               d="m 4.3875,0 c 0,2.42307 -1.96422,4.38738 -4.38729,4.3875 -2.42307,1.2e-4 -4.38748,-1.96401 -4.38771,-4.38708 -2.3e-4,-2.42307 1.9638,-4.38757 4.38687,-4.38792 2.42307,-3.5e-4 4.38767,1.96359 4.38813,4.38666" />
          </g>
          <g
             transform="matrix(1e-4,1,-1,1e-4,890.9325,710.1825)"
             id="g4868">
            <path
               inkscape:connector-curvature="0"
               id="path4870"
               style="fill:none;stroke:#000000;stroke-width:0.70499998;stroke-linecap:round;stroke-linejoin:round;stroke-miterlimit:10;stroke-dasharray:none;stroke-opacity:1"
               d="m 4.3875,0 c 0,2.42307 -1.96422,4.38738 -4.38729,4.3875 -2.42307,1.2e-4 -4.38748,-1.96401 -4.38771,-4.38708 -2.3e-4,-2.42307 1.9638,-4.38757 4.38687,-4.38792 2.42307,-3.5e-4 4.38767,1.96359 4.38813,4.38666" />
          </g>
          <g
             transform="matrix(1e-4,1,-1,1e-4,674.9325,710.1825)"
             id="g4872">
            <path
               inkscape:connector-curvature="0"
               id="path4874"
               style="fill:none;stroke:#000000;stroke-width:0.70499998;stroke-linecap:round;stroke-linejoin:round;stroke-miterlimit:10;stroke-dasharray:none;stroke-opacity:1"
               d="m 4.3875,0 c 0,2.42307 -1.96422,4.38738 -4.38729,4.3875 -2.42307,1.2e-4 -4.38748,-1.96401 -4.38771,-4.38708 -2.3e-4,-2.42307 1.9638,-4.38757 4.38687,-4.38792 2.42307,-3.5e-4 4.38767,1.96359 4.38813,4.38666" />
          </g>
          <g
             transform="matrix(1e-4,1,-1,1e-4,458.9325,710.1825)"
             id="g4876">
            <path
               inkscape:connector-curvature="0"
               id="path4878"
               style="fill:none;stroke:#000000;stroke-width:0.70499998;stroke-linecap:round;stroke-linejoin:round;stroke-miterlimit:10;stroke-dasharray:none;stroke-opacity:1"
               d="m 4.3875,0 c 0,2.42307 -1.96422,4.38738 -4.38729,4.3875 -2.42307,1.2e-4 -4.38748,-1.96401 -4.38771,-4.38708 -2.3e-4,-2.42307 1.9638,-4.38757 4.38687,-4.38792 2.42307,-3.5e-4 4.38767,1.96359 4.38813,4.38666" />
          </g>
          <g
             transform="matrix(1e-4,1,-1,1e-4,242.9325,710.1825)"
             id="g4880">
            <path
               inkscape:connector-curvature="0"
               id="path4882"
               style="fill:none;stroke:#000000;stroke-width:0.70499998;stroke-linecap:round;stroke-linejoin:round;stroke-miterlimit:10;stroke-dasharray:none;stroke-opacity:1"
               d="m 4.3875,0 c 0,2.42307 -1.96422,4.38738 -4.38729,4.3875 -2.42307,1.2e-4 -4.38748,-1.96401 -4.38771,-4.38708 -2.3e-4,-2.42307 1.9638,-4.38757 4.38687,-4.38792 2.42307,-3.5e-4 4.38767,1.96359 4.38813,4.38666" />
          </g>
          <g
             transform="matrix(1e-4,1,-1,1e-4,26.9325,710.1825)"
             id="g4884">
            <path
               inkscape:connector-curvature="0"
               id="path4886"
               style="fill:none;stroke:#000000;stroke-width:0.70499998;stroke-linecap:round;stroke-linejoin:round;stroke-miterlimit:10;stroke-dasharray:none;stroke-opacity:1"
               d="m 4.3875,0 c 0,2.42307 -1.96422,4.38738 -4.38729,4.3875 -2.42307,1.2e-4 -4.38748,-1.96401 -4.38771,-4.38708 -2.3e-4,-2.42307 1.9638,-4.38757 4.38687,-4.38792 2.42307,-3.5e-4 4.38767,1.96359 4.38813,4.38666" />
          </g>
          <g
             transform="matrix(1e-4,1,-1,1e-4,1008.5625,596.51251)"
             id="g4888">
            <path
               inkscape:connector-curvature="0"
               id="path4890"
               style="fill:none;stroke:#000000;stroke-width:0.70499998;stroke-linecap:round;stroke-linejoin:round;stroke-miterlimit:10;stroke-dasharray:none;stroke-opacity:1"
               d="m 53.8575,0 c 0,29.74367 -24.11125,53.85608 -53.85492,53.8575 C -29.74109,53.8589 -53.85465,29.74883 -53.8575,0.00516 -53.8603,-29.73851 -29.75142,-53.85322 -0.00775,-53.8575 29.73592,-53.8618 53.8518,-29.754 53.8575,-0.01033" />
          </g>
          <g
             transform="matrix(1e-4,1,-1,1e-4,125.28751,596.51251)"
             id="g4892">
            <path
               inkscape:connector-curvature="0"
               id="path4894"
               style="fill:none;stroke:#000000;stroke-width:0.70499998;stroke-linecap:round;stroke-linejoin:round;stroke-miterlimit:10;stroke-dasharray:none;stroke-opacity:1"
               d="m 53.8575,0 c 0,29.74367 -24.11125,53.85608 -53.85492,53.8575 C -29.74109,53.8589 -53.85465,29.74883 -53.8575,0.00516 -53.8603,-29.73851 -29.75142,-53.85322 -0.00775,-53.8575 29.73592,-53.8618 53.8518,-29.754 53.8575,-0.01033" />
          </g>
          <path
             inkscape:connector-curvature="0"
             id="path4896"
             style="fill:none;stroke:#000000;stroke-width:0.70499998;stroke-linecap:round;stroke-linejoin:round;stroke-miterlimit:10;stroke-dasharray:none;stroke-opacity:1"
             d="m 676.91998,171.88499 127.54505,0 0,80.50501 -127.54505,0 0,-80.50501" />
          <path
             inkscape:connector-curvature="0"
             id="path4898"
             style="fill:none;stroke:#000000;stroke-width:0.70499998;stroke-linecap:round;stroke-linejoin:round;stroke-miterlimit:10;stroke-dasharray:none;stroke-opacity:1"
             d="m 456.94501,171.88499 -127.56,0 0,80.50501 127.56,0 0,-80.50501" />
          <path
             inkscape:connector-curvature="0"
             id="path4900"
             style="fill:none;stroke:#000000;stroke-width:0.70499998;stroke-linecap:round;stroke-linejoin:round;stroke-miterlimit:10;stroke-dasharray:none;stroke-opacity:1"
             d="m 526.39502,616.34998 81.07495,0 0,81.07501 -81.07495,0 0,-81.07501" />
          <path
             inkscape:connector-curvature="0"
             id="path4902"
             style="fill:none;stroke:#000000;stroke-width:0.70499998;stroke-linecap:round;stroke-linejoin:round;stroke-miterlimit:10;stroke-dasharray:none;stroke-opacity:1"
             d="m 786.33002,337.42499 159.86999,0 0,159.87002 -159.86999,0 0,-159.87002" />
          <path
             inkscape:connector-curvature="0"
             id="path4904"
             style="fill:none;stroke:#000000;stroke-width:0.70499998;stroke-linecap:round;stroke-linejoin:round;stroke-miterlimit:10;stroke-dasharray:none;stroke-opacity:1"
             d="m 586.77002,337.42499 159.86999,0 0,159.87002 -159.86999,0 0,-159.87002" />
          <path
             inkscape:connector-curvature="0"
             id="path4906"
             style="fill:none;stroke:#000000;stroke-width:0.70499998;stroke-linecap:round;stroke-linejoin:round;stroke-miterlimit:10;stroke-dasharray:none;stroke-opacity:1"
             d="m 387.20999,337.42499 159.87003,0 0,159.87002 -159.87003,0 0,-159.87002" />
          <path
             inkscape:connector-curvature="0"
             id="path4908"
             style="fill:none;stroke:#000000;stroke-width:0.70499998;stroke-linecap:round;stroke-linejoin:round;stroke-miterlimit:10;stroke-dasharray:none;stroke-opacity:1"
             d="m 187.64999,337.42499 159.88501,0 0,159.87002 -159.88501,0 0,-159.87002" />
          <path
             inkscape:connector-curvature="0"
             id="path4910"
             style="fill:none;stroke:#000000;stroke-width:0.70499998;stroke-linecap:round;stroke-linejoin:round;stroke-miterlimit:10;stroke-dasharray:none;stroke-opacity:1"
             d="M 1133.865,0 0,0 0,737.09998" />
        </g>
      </g>
    </g>
  </g>
</svg>
