<?xml version="1.0" encoding="UTF-8" standalone="no"?>
<!-- Created with Inkscape (http://www.inkscape.org/) -->

<svg
   xmlns:dc="http://purl.org/dc/elements/1.1/"
   xmlns:cc="http://creativecommons.org/ns#"
   xmlns:rdf="http://www.w3.org/1999/02/22-rdf-syntax-ns#"
   xmlns:svg="http://www.w3.org/2000/svg"
   xmlns="http://www.w3.org/2000/svg"
   xmlns:sodipodi="http://sodipodi.sourceforge.net/DTD/sodipodi-0.dtd"
   xmlns:inkscape="http://www.inkscape.org/namespaces/inkscape"
   width="400.04001mm"
   height="260.04001mm"
   viewBox="0 0 1417.4646 921.40161"
   id="svg2"
   version="1.1"
   inkscape:version="0.91 r13725"
   sodipodi:docname="sdvx_bottom_svg.svg">
  <defs
     id="defs4">
    <clipPath
       id="clipPath4150"
       clipPathUnits="userSpaceOnUse">
      <path
         inkscape:connector-curvature="0"
         id="path4152"
         d="m 0,0 0,1105.665 1700.79,0 L 1700.79,0 0,0" />
    </clipPath>
  </defs>
  <sodipodi:namedview
     id="base"
     pagecolor="#ffffff"
     bordercolor="#666666"
     borderopacity="1.0"
     inkscape:pageopacity="0.0"
     inkscape:pageshadow="2"
     inkscape:zoom="0.57180681"
     inkscape:cx="89.797865"
     inkscape:cy="396.67372"
     inkscape:document-units="px"
     inkscape:current-layer="g4202"
     showgrid="false"
     inkscape:window-width="1920"
     inkscape:window-height="1018"
     inkscape:window-x="-8"
     inkscape:window-y="154"
     inkscape:window-maximized="1" />
  <metadata
     id="metadata7">
    <rdf:RDF>
      <cc:Work
         rdf:about="">
        <dc:format>image/svg+xml</dc:format>
        <dc:type
           rdf:resource="http://purl.org/dc/dcmitype/StillImage" />
        <dc:title></dc:title>
      </cc:Work>
    </rdf:RDF>
  </metadata>
  <g
     inkscape:label="Layer 1"
     inkscape:groupmode="layer"
     id="layer1"
     transform="translate(0,-130.96069)">
    <g
       transform="matrix(1.249604,0,0,-1.2500001,-0.09828837,1052.7301)"
       inkscape:label="sdvx_bottom"
       id="g4144">
      <g
         id="g4146">
        <g
           clip-path="url(#clipPath4150)"
           id="g4148"
           style="image-rendering:optimizeQuality">
          <g
             transform="matrix(1e-4,1,-1,1e-4,26.9325,539.1225)"
             id="g4154">
            <path
               inkscape:connector-curvature="0"
               id="path4156"
               style="fill:none;stroke:#000000;stroke-width:0.70499998;stroke-linecap:round;stroke-linejoin:round;stroke-miterlimit:10;stroke-dasharray:none;stroke-opacity:1"
               d="m 4.3875,0 c 0,2.42307 -1.96422,4.38738 -4.38729,4.3875 -2.42307,1.2e-4 -4.38748,-1.96401 -4.38771,-4.38708 -2.3e-4,-2.42307 1.9638,-4.38757 4.38687,-4.38792 2.42307,-3.5e-4 4.38767,1.96359 4.38813,4.38666" />
          </g>
          <g
             transform="matrix(1e-4,1,-1,1e-4,26.9325,283.02753)"
             id="g4158">
            <path
               inkscape:connector-curvature="0"
               id="path4160"
               style="fill:none;stroke:#000000;stroke-width:0.70499998;stroke-linecap:round;stroke-linejoin:round;stroke-miterlimit:10;stroke-dasharray:none;stroke-opacity:1"
               d="m 4.3875,0 c 0,2.42307 -1.96422,4.38738 -4.38729,4.3875 -2.42307,1.2e-4 -4.38748,-1.96401 -4.38771,-4.38708 -2.3e-4,-2.42307 1.9638,-4.38757 4.38687,-4.38792 2.42307,-3.5e-4 4.38767,1.96359 4.38813,4.38666" />
          </g>
          <g
             transform="matrix(1e-4,1,-1,1e-4,1106.9325,482.42249)"
             id="g4162">
            <path
               inkscape:connector-curvature="0"
               id="path4164"
               style="fill:none;stroke:#000000;stroke-width:0.70499998;stroke-linecap:round;stroke-linejoin:round;stroke-miterlimit:10;stroke-dasharray:none;stroke-opacity:1"
               d="m 4.3875,0 c 0,2.42307 -1.96422,4.38738 -4.38729,4.3875 -2.42307,1.2e-4 -4.38748,-1.96401 -4.38771,-4.38708 -2.3e-4,-2.42307 1.9638,-4.38757 4.38687,-4.38792 2.42307,-3.5e-4 4.38767,1.96359 4.38813,4.38666" />
          </g>
          <g
             transform="matrix(1e-4,1,-1,1e-4,1106.9325,254.67749)"
             id="g4166">
            <path
               inkscape:connector-curvature="0"
               id="path4168"
               style="fill:none;stroke:#000000;stroke-width:0.70499998;stroke-linecap:round;stroke-linejoin:round;stroke-miterlimit:10;stroke-dasharray:none;stroke-opacity:1"
               d="m 4.3875,0 c 0,2.42307 -1.96422,4.38738 -4.38729,4.3875 -2.42307,1.2e-4 -4.38748,-1.96401 -4.38771,-4.38708 -2.3e-4,-2.42307 1.9638,-4.38757 4.38687,-4.38792 2.42307,-3.5e-4 4.38767,1.96359 4.38813,4.38666" />
          </g>
          <g
             transform="matrix(1e-4,1,-1,1e-4,1106.9325,26.9325)"
             id="g4170">
            <path
               inkscape:connector-curvature="0"
               id="path4172"
               style="fill:none;stroke:#000000;stroke-width:0.70499998;stroke-linecap:round;stroke-linejoin:round;stroke-miterlimit:10;stroke-dasharray:none;stroke-opacity:1"
               d="m 4.3875,0 c 0,2.42307 -1.96422,4.38738 -4.38729,4.3875 -2.42307,1.2e-4 -4.38748,-1.96401 -4.38771,-4.38708 -2.3e-4,-2.42307 1.9638,-4.38757 4.38687,-4.38792 2.42307,-3.5e-4 4.38767,1.96359 4.38813,4.38666" />
          </g>
          <g
             transform="matrix(1e-4,1,-1,1e-4,890.9325,26.9325)"
             id="g4174">
            <path
               inkscape:connector-curvature="0"
               id="path4176"
               style="fill:none;stroke:#000000;stroke-width:0.70499998;stroke-linecap:round;stroke-linejoin:round;stroke-miterlimit:10;stroke-dasharray:none;stroke-opacity:1"
               d="m 4.3875,0 c 0,2.42307 -1.96422,4.38738 -4.38729,4.3875 -2.42307,1.2e-4 -4.38748,-1.96401 -4.38771,-4.38708 -2.3e-4,-2.42307 1.9638,-4.38757 4.38687,-4.38792 2.42307,-3.5e-4 4.38767,1.96359 4.38813,4.38666" />
          </g>
          <g
             transform="matrix(1e-4,1,-1,1e-4,674.9325,26.9325)"
             id="g4178">
            <path
               inkscape:connector-curvature="0"
               id="path4180"
               style="fill:none;stroke:#000000;stroke-width:0.70499998;stroke-linecap:round;stroke-linejoin:round;stroke-miterlimit:10;stroke-dasharray:none;stroke-opacity:1"
               d="m 4.3875,0 c 0,2.42307 -1.96422,4.38738 -4.38729,4.3875 -2.42307,1.2e-4 -4.38748,-1.96401 -4.38771,-4.38708 -2.3e-4,-2.42307 1.9638,-4.38757 4.38687,-4.38792 2.42307,-3.5e-4 4.38767,1.96359 4.38813,4.38666" />
          </g>
          <g
             transform="matrix(1e-4,1,-1,1e-4,458.9325,26.9325)"
             id="g4182">
            <path
               inkscape:connector-curvature="0"
               id="path4184"
               style="fill:none;stroke:#000000;stroke-width:0.70499998;stroke-linecap:round;stroke-linejoin:round;stroke-miterlimit:10;stroke-dasharray:none;stroke-opacity:1"
               d="m 4.3875,0 c 0,2.42307 -1.96422,4.38738 -4.38729,4.3875 -2.42307,1.2e-4 -4.38748,-1.96401 -4.38771,-4.38708 -2.3e-4,-2.42307 1.9638,-4.38757 4.38687,-4.38792 2.42307,-3.5e-4 4.38767,1.96359 4.38813,4.38666" />
          </g>
          <g
             transform="matrix(1e-4,1,-1,1e-4,242.9325,26.9325)"
             id="g4186">
            <path
               inkscape:connector-curvature="0"
               id="path4188"
               style="fill:none;stroke:#000000;stroke-width:0.70499998;stroke-linecap:round;stroke-linejoin:round;stroke-miterlimit:10;stroke-dasharray:none;stroke-opacity:1"
               d="m 4.3875,0 c 0,2.42307 -1.96422,4.38738 -4.38729,4.3875 -2.42307,1.2e-4 -4.38748,-1.96401 -4.38771,-4.38708 -2.3e-4,-2.42307 1.9638,-4.38757 4.38687,-4.38792 2.42307,-3.5e-4 4.38767,1.96359 4.38813,4.38666" />
          </g>
          <g
             transform="matrix(1e-4,1,-1,1e-4,26.9325,26.9325)"
             id="g4190">
            <path
               inkscape:connector-curvature="0"
               id="path4192"
               style="fill:none;stroke:#000000;stroke-width:0.70499998;stroke-linecap:round;stroke-linejoin:round;stroke-miterlimit:10;stroke-dasharray:none;stroke-opacity:1"
               d="m 4.3875,0 c 0,2.42307 -1.96422,4.38738 -4.38729,4.3875 -2.42307,1.2e-4 -4.38748,-1.96401 -4.38771,-4.38708 -2.3e-4,-2.42307 1.9638,-4.38757 4.38687,-4.38792 2.42307,-3.5e-4 4.38767,1.96359 4.38813,4.38666" />
          </g>
          <g
             transform="matrix(1e-4,1,-1,1e-4,1106.9325,710.1825)"
             id="g4194">
            <path
               inkscape:connector-curvature="0"
               id="path4196"
               style="fill:none;stroke:#000000;stroke-width:0.70499998;stroke-linecap:round;stroke-linejoin:round;stroke-miterlimit:10;stroke-dasharray:none;stroke-opacity:1"
               d="m 4.3875,0 c 0,2.42307 -1.96422,4.38738 -4.38729,4.3875 -2.42307,1.2e-4 -4.38748,-1.96401 -4.38771,-4.38708 -2.3e-4,-2.42307 1.9638,-4.38757 4.38687,-4.38792 2.42307,-3.5e-4 4.38767,1.96359 4.38813,4.38666" />
          </g>
          <g
             transform="matrix(1e-4,1,-1,1e-4,890.9325,710.1825)"
             id="g4198">
            <path
               inkscape:connector-curvature="0"
               id="path4200"
               style="fill:none;stroke:#000000;stroke-width:0.70499998;stroke-linecap:round;stroke-linejoin:round;stroke-miterlimit:10;stroke-dasharray:none;stroke-opacity:1"
               d="m 4.3875,0 c 0,2.42307 -1.96422,4.38738 -4.38729,4.3875 -2.42307,1.2e-4 -4.38748,-1.96401 -4.38771,-4.38708 -2.3e-4,-2.42307 1.9638,-4.38757 4.38687,-4.38792 2.42307,-3.5e-4 4.38767,1.96359 4.38813,4.38666" />
          </g>
          <g
             transform="matrix(1e-4,1,-1,1e-4,674.9325,710.1825)"
             id="g4202">
            <path
               inkscape:connector-curvature="0"
               id="path4204"
               style="fill:none;stroke:#000000;stroke-width:0.70491164;stroke-linecap:round;stroke-linejoin:round;stroke-miterlimit:10;stroke-dasharray:none;stroke-opacity:1"
               d="m 4.3875,0 c 0,2.42307 -1.96422,4.38738 -4.38729,4.3875 -2.42307,1.2e-4 -4.38748,-1.96401 -4.38771,-4.38708 -2.3e-4,-2.42307 1.9638,-4.38757 4.38687,-4.38792 2.42307,-3.5e-4 4.38767,1.96359 4.38813,4.38666" />
          </g>
          <g
             transform="matrix(1e-4,1,-1,1e-4,458.9325,710.1825)"
             id="g4206">
            <path
               inkscape:connector-curvature="0"
               id="path4208"
               style="fill:none;stroke:#000000;stroke-width:0.70499998;stroke-linecap:round;stroke-linejoin:round;stroke-miterlimit:10;stroke-dasharray:none;stroke-opacity:1"
               d="m 4.3875,0 c 0,2.42307 -1.96422,4.38738 -4.38729,4.3875 -2.42307,1.2e-4 -4.38748,-1.96401 -4.38771,-4.38708 -2.3e-4,-2.42307 1.9638,-4.38757 4.38687,-4.38792 2.42307,-3.5e-4 4.38767,1.96359 4.38813,4.38666" />
          </g>
          <g
             transform="matrix(1e-4,1,-1,1e-4,242.9325,710.1825)"
             id="g4210">
            <path
               inkscape:connector-curvature="0"
               id="path4212"
               style="fill:none;stroke:#000000;stroke-width:0.70499998;stroke-linecap:round;stroke-linejoin:round;stroke-miterlimit:10;stroke-dasharray:none;stroke-opacity:1"
               d="m 4.3875,0 c 0,2.42307 -1.96422,4.38738 -4.38729,4.3875 -2.42307,1.2e-4 -4.38748,-1.96401 -4.38771,-4.38708 -2.3e-4,-2.42307 1.9638,-4.38757 4.38687,-4.38792 2.42307,-3.5e-4 4.38767,1.96359 4.38813,4.38666" />
          </g>
          <g
             transform="matrix(1e-4,1,-1,1e-4,26.9325,710.1825)"
             id="g4214">
            <path
               inkscape:connector-curvature="0"
               id="path4216"
               style="fill:none;stroke:#000000;stroke-width:0.70499998;stroke-linecap:round;stroke-linejoin:round;stroke-miterlimit:10;stroke-dasharray:none;stroke-opacity:1"
               d="m 4.3875,0 c 0,2.42307 -1.96422,4.38738 -4.38729,4.3875 -2.42307,1.2e-4 -4.38748,-1.96401 -4.38771,-4.38708 -2.3e-4,-2.42307 1.9638,-4.38757 4.38687,-4.38792 2.42307,-3.5e-4 4.38767,1.96359 4.38813,4.38666" />
          </g>
          <path
             inkscape:connector-curvature="0"
             id="path4218"
             style="fill:none;stroke:#000000;stroke-width:0.70499998;stroke-linecap:round;stroke-linejoin:round;stroke-miterlimit:10;stroke-dasharray:none;stroke-opacity:1"
             d="M 1133.865,737.09998 1133.865,0 0,0" />
        </g>
      </g>
    </g>
  </g>
</svg>
