<?xml version="1.0" encoding="UTF-8" standalone="no"?>
<!-- Created with Inkscape (http://www.inkscape.org/) -->

<svg
   xmlns:dc="http://purl.org/dc/elements/1.1/"
   xmlns:cc="http://creativecommons.org/ns#"
   xmlns:rdf="http://www.w3.org/1999/02/22-rdf-syntax-ns#"
   xmlns:svg="http://www.w3.org/2000/svg"
   xmlns="http://www.w3.org/2000/svg"
   xmlns:sodipodi="http://sodipodi.sourceforge.net/DTD/sodipodi-0.dtd"
   xmlns:inkscape="http://www.inkscape.org/namespaces/inkscape"
   width="15.753021in"
   height="10.242465in"
   viewBox="0 0 1417.7719 921.82187"
   id="svg2"
   version="1.1"
   inkscape:version="0.91 r13725"
   sodipodi:docname="top-print.svg">
  <defs
     id="defs4">
    <clipPath
       id="clipPath4150"
       clipPathUnits="userSpaceOnUse">
      <path
         inkscape:connector-curvature="0"
         id="path4152"
         d="m 0,0 0,1105.665 1700.79,0 L 1700.79,0 0,0" />
    </clipPath>
  </defs>
  <sodipodi:namedview
     id="base"
     pagecolor="#ffffff"
     bordercolor="#666666"
     borderopacity="1.0"
     inkscape:pageopacity="0.0"
     inkscape:pageshadow="2"
     inkscape:zoom="0.7"
     inkscape:cx="690.61998"
     inkscape:cy="525.59739"
     inkscape:document-units="px"
     inkscape:current-layer="layer1"
     showgrid="false"
     units="in"
     fit-margin-top="0"
     fit-margin-left="0"
     fit-margin-right="0"
     fit-margin-bottom="0"
     inkscape:window-width="1920"
     inkscape:window-height="1018"
     inkscape:window-x="-8"
     inkscape:window-y="147"
     inkscape:window-maximized="1" />
  <metadata
     id="metadata7">
    <rdf:RDF>
      <cc:Work
         rdf:about="">
        <dc:format>image/svg+xml</dc:format>
        <dc:type
           rdf:resource="http://purl.org/dc/dcmitype/StillImage" />
        <dc:title></dc:title>
      </cc:Work>
    </rdf:RDF>
  </metadata>
  <g
     inkscape:label="Layer 1"
     inkscape:groupmode="layer"
     id="layer1"
     transform="translate(326.02881,-71.451314)">
    <g
       transform="matrix(1.25,0,0,-1.25,-326.02881,993.27319)"
       inkscape:label="sdvx_top-drawing"
       id="g4144">
      <g
         id="g4146">
        <g
           clip-path="url(#clipPath4150)"
           id="g4148">
          <g
             transform="matrix(1e-4,1,-1,1e-4,26.9325,482.42249)"
             id="g4154">
            <path
               inkscape:connector-curvature="0"
               id="path4156"
               style="fill:none;stroke:#000000;stroke-width:0.70499998;stroke-linecap:round;stroke-linejoin:round;stroke-miterlimit:10;stroke-dasharray:none;stroke-opacity:1"
               d="m 4.3875,0 c 0,2.42307 -1.96422,4.38738 -4.38729,4.3875 -2.42307,1.2e-4 -4.38748,-1.96401 -4.38771,-4.38708 -2.3e-4,-2.42307 1.9638,-4.38757 4.38687,-4.38792 2.42307,-3.5e-4 4.38767,1.96359 4.38813,4.38666" />
          </g>
          <g
             transform="matrix(1e-4,1,-1,1e-4,26.9325,254.67749)"
             id="g4158">
            <path
               inkscape:connector-curvature="0"
               id="path4160"
               style="fill:none;stroke:#000000;stroke-width:0.70499998;stroke-linecap:round;stroke-linejoin:round;stroke-miterlimit:10;stroke-dasharray:none;stroke-opacity:1"
               d="m 4.3875,0 c 0,2.42307 -1.96422,4.38738 -4.38729,4.3875 -2.42307,1.2e-4 -4.38748,-1.96401 -4.38771,-4.38708 -2.3e-4,-2.42307 1.9638,-4.38757 4.38687,-4.38792 2.42307,-3.5e-4 4.38767,1.96359 4.38813,4.38666" />
          </g>
          <g
             transform="matrix(1e-4,1,-1,1e-4,1106.9325,482.42249)"
             id="g4162">
            <path
               inkscape:connector-curvature="0"
               id="path4164"
               style="fill:none;stroke:#000000;stroke-width:0.70499998;stroke-linecap:round;stroke-linejoin:round;stroke-miterlimit:10;stroke-dasharray:none;stroke-opacity:1"
               d="m 4.3875,0 c 0,2.42307 -1.96422,4.38738 -4.38729,4.3875 -2.42307,1.2e-4 -4.38748,-1.96401 -4.38771,-4.38708 -2.3e-4,-2.42307 1.9638,-4.38757 4.38687,-4.38792 2.42307,-3.5e-4 4.38767,1.96359 4.38813,4.38666" />
          </g>
          <g
             transform="matrix(1e-4,1,-1,1e-4,1106.9325,254.67749)"
             id="g4166">
            <path
               inkscape:connector-curvature="0"
               id="path4168"
               style="fill:none;stroke:#000000;stroke-width:0.70499998;stroke-linecap:round;stroke-linejoin:round;stroke-miterlimit:10;stroke-dasharray:none;stroke-opacity:1"
               d="m 4.3875,0 c 0,2.42307 -1.96422,4.38738 -4.38729,4.3875 -2.42307,1.2e-4 -4.38748,-1.96401 -4.38771,-4.38708 -2.3e-4,-2.42307 1.9638,-4.38757 4.38687,-4.38792 2.42307,-3.5e-4 4.38767,1.96359 4.38813,4.38666" />
          </g>
          <g
             transform="matrix(1e-4,1,-1,1e-4,1106.9325,26.9325)"
             id="g4170">
            <path
               inkscape:connector-curvature="0"
               id="path4172"
               style="fill:none;stroke:#000000;stroke-width:0.70499998;stroke-linecap:round;stroke-linejoin:round;stroke-miterlimit:10;stroke-dasharray:none;stroke-opacity:1"
               d="m 4.3875,0 c 0,2.42307 -1.96422,4.38738 -4.38729,4.3875 -2.42307,1.2e-4 -4.38748,-1.96401 -4.38771,-4.38708 -2.3e-4,-2.42307 1.9638,-4.38757 4.38687,-4.38792 2.42307,-3.5e-4 4.38767,1.96359 4.38813,4.38666" />
          </g>
          <g
             transform="matrix(1e-4,1,-1,1e-4,890.9325,26.9325)"
             id="g4174">
            <path
               inkscape:connector-curvature="0"
               id="path4176"
               style="fill:none;stroke:#000000;stroke-width:0.70499998;stroke-linecap:round;stroke-linejoin:round;stroke-miterlimit:10;stroke-dasharray:none;stroke-opacity:1"
               d="m 4.3875,0 c 0,2.42307 -1.96422,4.38738 -4.38729,4.3875 -2.42307,1.2e-4 -4.38748,-1.96401 -4.38771,-4.38708 -2.3e-4,-2.42307 1.9638,-4.38757 4.38687,-4.38792 2.42307,-3.5e-4 4.38767,1.96359 4.38813,4.38666" />
          </g>
          <g
             transform="matrix(1e-4,1,-1,1e-4,674.9325,26.9325)"
             id="g4178">
            <path
               inkscape:connector-curvature="0"
               id="path4180"
               style="fill:none;stroke:#000000;stroke-width:0.70499998;stroke-linecap:round;stroke-linejoin:round;stroke-miterlimit:10;stroke-dasharray:none;stroke-opacity:1"
               d="m 4.3875,0 c 0,2.42307 -1.96422,4.38738 -4.38729,4.3875 -2.42307,1.2e-4 -4.38748,-1.96401 -4.38771,-4.38708 -2.3e-4,-2.42307 1.9638,-4.38757 4.38687,-4.38792 2.42307,-3.5e-4 4.38767,1.96359 4.38813,4.38666" />
          </g>
          <g
             transform="matrix(1e-4,1,-1,1e-4,458.9325,26.9325)"
             id="g4182">
            <path
               inkscape:connector-curvature="0"
               id="path4184"
               style="fill:none;stroke:#000000;stroke-width:0.70499998;stroke-linecap:round;stroke-linejoin:round;stroke-miterlimit:10;stroke-dasharray:none;stroke-opacity:1"
               d="m 4.3875,0 c 0,2.42307 -1.96422,4.38738 -4.38729,4.3875 -2.42307,1.2e-4 -4.38748,-1.96401 -4.38771,-4.38708 -2.3e-4,-2.42307 1.9638,-4.38757 4.38687,-4.38792 2.42307,-3.5e-4 4.38767,1.96359 4.38813,4.38666" />
          </g>
          <g
             transform="matrix(1e-4,1,-1,1e-4,242.9325,26.9325)"
             id="g4186">
            <path
               inkscape:connector-curvature="0"
               id="path4188"
               style="fill:none;stroke:#000000;stroke-width:0.70499998;stroke-linecap:round;stroke-linejoin:round;stroke-miterlimit:10;stroke-dasharray:none;stroke-opacity:1"
               d="m 4.3875,0 c 0,2.42307 -1.96422,4.38738 -4.38729,4.3875 -2.42307,1.2e-4 -4.38748,-1.96401 -4.38771,-4.38708 -2.3e-4,-2.42307 1.9638,-4.38757 4.38687,-4.38792 2.42307,-3.5e-4 4.38767,1.96359 4.38813,4.38666" />
          </g>
          <g
             transform="matrix(1e-4,1,-1,1e-4,26.9325,26.9325)"
             id="g4190">
            <path
               inkscape:connector-curvature="0"
               id="path4192"
               style="fill:none;stroke:#000000;stroke-width:0.70499998;stroke-linecap:round;stroke-linejoin:round;stroke-miterlimit:10;stroke-dasharray:none;stroke-opacity:1"
               d="m 4.3875,0 c 0,2.42307 -1.96422,4.38738 -4.38729,4.3875 -2.42307,1.2e-4 -4.38748,-1.96401 -4.38771,-4.38708 -2.3e-4,-2.42307 1.9638,-4.38757 4.38687,-4.38792 2.42307,-3.5e-4 4.38767,1.96359 4.38813,4.38666" />
          </g>
          <g
             transform="matrix(1e-4,1,-1,1e-4,1106.9325,710.1825)"
             id="g4194">
            <path
               inkscape:connector-curvature="0"
               id="path4196"
               style="fill:none;stroke:#000000;stroke-width:0.70499998;stroke-linecap:round;stroke-linejoin:round;stroke-miterlimit:10;stroke-dasharray:none;stroke-opacity:1"
               d="m 4.3875,0 c 0,2.42307 -1.96422,4.38738 -4.38729,4.3875 -2.42307,1.2e-4 -4.38748,-1.96401 -4.38771,-4.38708 -2.3e-4,-2.42307 1.9638,-4.38757 4.38687,-4.38792 2.42307,-3.5e-4 4.38767,1.96359 4.38813,4.38666" />
          </g>
          <g
             transform="matrix(1e-4,1,-1,1e-4,890.9325,710.1825)"
             id="g4198">
            <path
               inkscape:connector-curvature="0"
               id="path4200"
               style="fill:none;stroke:#000000;stroke-width:0.70499998;stroke-linecap:round;stroke-linejoin:round;stroke-miterlimit:10;stroke-dasharray:none;stroke-opacity:1"
               d="m 4.3875,0 c 0,2.42307 -1.96422,4.38738 -4.38729,4.3875 -2.42307,1.2e-4 -4.38748,-1.96401 -4.38771,-4.38708 -2.3e-4,-2.42307 1.9638,-4.38757 4.38687,-4.38792 2.42307,-3.5e-4 4.38767,1.96359 4.38813,4.38666" />
          </g>
          <g
             transform="matrix(1e-4,1,-1,1e-4,674.9325,710.1825)"
             id="g4202">
            <path
               inkscape:connector-curvature="0"
               id="path4204"
               style="fill:none;stroke:#000000;stroke-width:0.70499998;stroke-linecap:round;stroke-linejoin:round;stroke-miterlimit:10;stroke-dasharray:none;stroke-opacity:1"
               d="m 4.3875,0 c 0,2.42307 -1.96422,4.38738 -4.38729,4.3875 -2.42307,1.2e-4 -4.38748,-1.96401 -4.38771,-4.38708 -2.3e-4,-2.42307 1.9638,-4.38757 4.38687,-4.38792 2.42307,-3.5e-4 4.38767,1.96359 4.38813,4.38666" />
          </g>
          <g
             transform="matrix(1e-4,1,-1,1e-4,458.9325,710.1825)"
             id="g4206">
            <path
               inkscape:connector-curvature="0"
               id="path4208"
               style="fill:none;stroke:#000000;stroke-width:0.70499998;stroke-linecap:round;stroke-linejoin:round;stroke-miterlimit:10;stroke-dasharray:none;stroke-opacity:1"
               d="m 4.3875,0 c 0,2.42307 -1.96422,4.38738 -4.38729,4.3875 -2.42307,1.2e-4 -4.38748,-1.96401 -4.38771,-4.38708 -2.3e-4,-2.42307 1.9638,-4.38757 4.38687,-4.38792 2.42307,-3.5e-4 4.38767,1.96359 4.38813,4.38666" />
          </g>
          <g
             transform="matrix(1e-4,1,-1,1e-4,242.9325,710.1825)"
             id="g4210">
            <path
               inkscape:connector-curvature="0"
               id="path4212"
               style="fill:none;stroke:#000000;stroke-width:0.70499998;stroke-linecap:round;stroke-linejoin:round;stroke-miterlimit:10;stroke-dasharray:none;stroke-opacity:1"
               d="m 4.3875,0 c 0,2.42307 -1.96422,4.38738 -4.38729,4.3875 -2.42307,1.2e-4 -4.38748,-1.96401 -4.38771,-4.38708 -2.3e-4,-2.42307 1.9638,-4.38757 4.38687,-4.38792 2.42307,-3.5e-4 4.38767,1.96359 4.38813,4.38666" />
          </g>
          <g
             transform="matrix(1e-4,1,-1,1e-4,1008.5625,596.51245)"
             id="g4214">
            <path
               inkscape:connector-curvature="0"
               id="path4216"
               style="fill:none;stroke:#000000;stroke-width:0.70499998;stroke-linecap:round;stroke-linejoin:round;stroke-miterlimit:10;stroke-dasharray:none;stroke-opacity:1"
               d="m 28.3425,0 c 0,15.6526 -12.68854,28.34175 -28.34114,28.3425 -15.6526,7.5e-4 -28.34236,-12.68718 -28.34386,-28.33978 -0.0015,-15.6526 12.68582,-28.34297 28.33842,-28.34522 15.6526,-0.0023 28.34358,12.68446 28.34658,28.33707" />
          </g>
          <g
             transform="matrix(1e-4,1,-1,1e-4,1042.9425,576.66748)"
             id="g4218">
            <path
               inkscape:connector-curvature="0"
               id="path4220"
               style="fill:none;stroke:#000000;stroke-width:0.70499998;stroke-linecap:round;stroke-linejoin:round;stroke-miterlimit:10;stroke-dasharray:none;stroke-opacity:1"
               d="m 4.8225,0 c 0,2.6633 -2.15897,4.82237 -4.82227,4.8225 -2.6633,1.3e-4 -4.82247,-2.15873 -4.82273,-4.82204 -2.6e-4,-2.6633 2.1585,-4.82258 4.82181,-4.82296 2.6633,-3.8e-4 4.82268,2.15827 4.82319,4.82158" />
          </g>
          <g
             transform="matrix(1e-4,1,-1,1e-4,1008.5625,596.51245)"
             id="g4222">
            <path
               inkscape:connector-curvature="0"
               id="path4224"
               style="fill:none;stroke:#000000;stroke-width:0.70499998;stroke-linecap:round;stroke-linejoin:round;stroke-miterlimit:10;stroke-dasharray:none;stroke-opacity:1"
               d="m 28.3425,0 c 0,15.6526 -12.68854,28.34175 -28.34114,28.3425 -15.6526,7.5e-4 -28.34236,-12.68718 -28.34386,-28.33978 -0.0015,-15.6526 12.68582,-28.34297 28.33842,-28.34522 15.6526,-0.0023 28.34358,12.68446 28.34658,28.33707" />
          </g>
          <g
             transform="matrix(1e-4,1,-1,1e-4,974.19751,576.66748)"
             id="g4226">
            <path
               inkscape:connector-curvature="0"
               id="path4228"
               style="fill:none;stroke:#000000;stroke-width:0.70499998;stroke-linecap:round;stroke-linejoin:round;stroke-miterlimit:10;stroke-dasharray:none;stroke-opacity:1"
               d="m 4.8225,0 c 0,2.6633 -2.15897,4.82237 -4.82227,4.8225 -2.6633,1.3e-4 -4.82247,-2.15873 -4.82273,-4.82204 -2.6e-4,-2.6633 2.1585,-4.82258 4.82181,-4.82296 2.6633,-3.8e-4 4.82268,2.15827 4.82319,4.82158" />
          </g>
          <g
             transform="matrix(1e-4,1,-1,1e-4,1008.5625,636.1875)"
             id="g4230">
            <path
               inkscape:connector-curvature="0"
               id="path4232"
               style="fill:none;stroke:#000000;stroke-width:0.70499998;stroke-linecap:round;stroke-linejoin:round;stroke-miterlimit:10;stroke-dasharray:none;stroke-opacity:1"
               d="m 4.8225,0 c 0,2.6633 -2.15897,4.82237 -4.82227,4.8225 -2.6633,1.3e-4 -4.82247,-2.15873 -4.82273,-4.82204 -2.6e-4,-2.6633 2.1585,-4.82258 4.82181,-4.82296 2.6633,-3.8e-4 4.82268,2.15827 4.82319,4.82158" />
          </g>
          <g
             transform="matrix(1e-4,1,-1,1e-4,159.6525,576.66748)"
             id="g4234">
            <path
               inkscape:connector-curvature="0"
               id="path4236"
               style="fill:none;stroke:#000000;stroke-width:0.70499998;stroke-linecap:round;stroke-linejoin:round;stroke-miterlimit:10;stroke-dasharray:none;stroke-opacity:1"
               d="m 4.8225,0 c 0,2.6633 -2.15897,4.82237 -4.82227,4.8225 -2.6633,1.3e-4 -4.82247,-2.15873 -4.82273,-4.82204 -2.6e-4,-2.6633 2.1585,-4.82258 4.82181,-4.82296 2.6633,-3.8e-4 4.82268,2.15827 4.82319,4.82158" />
          </g>
          <g
             transform="matrix(1e-4,1,-1,1e-4,125.28751,596.51245)"
             id="g4238">
            <path
               inkscape:connector-curvature="0"
               id="path4240"
               style="fill:none;stroke:#000000;stroke-width:0.70499998;stroke-linecap:round;stroke-linejoin:round;stroke-miterlimit:10;stroke-dasharray:none;stroke-opacity:1"
               d="m 28.3425,0 c 0,15.6526 -12.68854,28.34175 -28.34114,28.3425 -15.6526,7.5e-4 -28.34236,-12.68718 -28.34386,-28.33978 -0.0015,-15.6526 12.68582,-28.34297 28.33842,-28.34522 15.6526,-0.0023 28.34358,12.68446 28.34658,28.33707" />
          </g>
          <g
             transform="matrix(1e-4,1,-1,1e-4,90.9225,576.66748)"
             id="g4242">
            <path
               inkscape:connector-curvature="0"
               id="path4244"
               style="fill:none;stroke:#000000;stroke-width:0.70499998;stroke-linecap:round;stroke-linejoin:round;stroke-miterlimit:10;stroke-dasharray:none;stroke-opacity:1"
               d="m 4.8225,0 c 0,2.6633 -2.15897,4.82237 -4.82227,4.8225 -2.6633,1.3e-4 -4.82247,-2.15873 -4.82273,-4.82204 -2.6e-4,-2.6633 2.1585,-4.82258 4.82181,-4.82296 2.6633,-3.8e-4 4.82268,2.15827 4.82319,4.82158" />
          </g>
          <g
             transform="matrix(1e-4,1,-1,1e-4,125.28751,596.51245)"
             id="g4246">
            <path
               inkscape:connector-curvature="0"
               id="path4248"
               style="fill:none;stroke:#000000;stroke-width:0.70499998;stroke-linecap:round;stroke-linejoin:round;stroke-miterlimit:10;stroke-dasharray:none;stroke-opacity:1"
               d="m 28.3425,0 c 0,15.6526 -12.68854,28.34175 -28.34114,28.3425 -15.6526,7.5e-4 -28.34236,-12.68718 -28.34386,-28.33978 -0.0015,-15.6526 12.68582,-28.34297 28.33842,-28.34522 15.6526,-0.0023 28.34358,12.68446 28.34658,28.33707" />
          </g>
          <g
             transform="matrix(1e-4,1,-1,1e-4,125.2875,636.1875)"
             id="g4250">
            <path
               inkscape:connector-curvature="0"
               id="path4252"
               style="fill:none;stroke:#000000;stroke-width:0.70499998;stroke-linecap:round;stroke-linejoin:round;stroke-miterlimit:10;stroke-dasharray:none;stroke-opacity:1"
               d="m 4.8225,0 c 0,2.6633 -2.15897,4.82237 -4.82227,4.8225 -2.6633,1.3e-4 -4.82247,-2.15873 -4.82273,-4.82204 -2.6e-4,-2.6633 2.1585,-4.82258 4.82181,-4.82296 2.6633,-3.8e-4 4.82268,2.15827 4.82319,4.82158" />
          </g>
          <g
             transform="matrix(1e-4,1,-1,1e-4,26.9325,710.1825)"
             id="g4254">
            <path
               inkscape:connector-curvature="0"
               id="path4256"
               style="fill:none;stroke:#000000;stroke-width:0.70499998;stroke-linecap:round;stroke-linejoin:round;stroke-miterlimit:10;stroke-dasharray:none;stroke-opacity:1"
               d="m 4.3875,0 c 0,2.42307 -1.96422,4.38738 -4.38729,4.3875 -2.42307,1.2e-4 -4.38748,-1.96401 -4.38771,-4.38708 -2.3e-4,-2.42307 1.9638,-4.38757 4.38687,-4.38792 2.42307,-3.5e-4 4.38767,1.96359 4.38813,4.38666" />
          </g>
          <g
             transform="matrix(1e-4,1,-1,1e-4,1008.5625,596.51245)"
             id="g4258">
            <path
               inkscape:connector-curvature="0"
               id="path4260"
               style="fill:none;stroke:#000000;stroke-width:0.70499998;stroke-linecap:round;stroke-linejoin:round;stroke-miterlimit:10;stroke-dasharray:none;stroke-opacity:1"
               d="m 28.3425,0 c 0,15.6526 -12.68854,28.34175 -28.34114,28.3425 -15.6526,7.5e-4 -28.34236,-12.68718 -28.34386,-28.33978 -0.0015,-15.6526 12.68582,-28.34297 28.33842,-28.34522 15.6526,-0.0023 28.34358,12.68446 28.34658,28.33707" />
          </g>
          <g
             transform="matrix(1e-4,1,-1,1e-4,125.28751,596.51245)"
             id="g4262">
            <path
               inkscape:connector-curvature="0"
               id="path4264"
               style="fill:none;stroke:#000000;stroke-width:0.70499998;stroke-linecap:round;stroke-linejoin:round;stroke-miterlimit:10;stroke-dasharray:none;stroke-opacity:1"
               d="m 28.3425,0 c 0,15.6526 -12.68854,28.34175 -28.34114,28.3425 -15.6526,7.5e-4 -28.34236,-12.68718 -28.34386,-28.33978 -0.0015,-15.6526 12.68582,-28.34297 28.33842,-28.34522 15.6526,-0.0023 28.34358,12.68446 28.34658,28.33707" />
          </g>
          <path
             inkscape:connector-curvature="0"
             id="path4266"
             style="fill:none;stroke:#000000;stroke-width:0.70499998;stroke-linecap:round;stroke-linejoin:round;stroke-miterlimit:10;stroke-dasharray:none;stroke-opacity:1"
             d="m 676.91998,171.88499 127.54505,0 0,80.50501 -127.54505,0 0,-80.50501" />
          <path
             inkscape:connector-curvature="0"
             id="path4268"
             style="fill:none;stroke:#000000;stroke-width:0.70499998;stroke-linecap:round;stroke-linejoin:round;stroke-miterlimit:10;stroke-dasharray:none;stroke-opacity:1"
             d="m 456.94501,171.88499 -127.56,0 0,80.50501 127.56,0 0,-80.50501" />
          <path
             inkscape:connector-curvature="0"
             id="path4270"
             style="fill:none;stroke:#000000;stroke-width:0.70499998;stroke-linecap:round;stroke-linejoin:round;stroke-miterlimit:10;stroke-dasharray:none;stroke-opacity:1"
             d="m 526.39502,616.34998 81.07495,0 0,81.07501 -81.07495,0 0,-81.07501" />
          <path
             inkscape:connector-curvature="0"
             id="path4272"
             style="fill:none;stroke:#000000;stroke-width:0.70499998;stroke-linecap:round;stroke-linejoin:round;stroke-miterlimit:10;stroke-dasharray:none;stroke-opacity:1"
             d="m 786.33002,337.42499 159.86999,0 0,159.87002 -159.86999,0 0,-159.87002" />
          <path
             inkscape:connector-curvature="0"
             id="path4274"
             style="fill:none;stroke:#000000;stroke-width:0.70499998;stroke-linecap:round;stroke-linejoin:round;stroke-miterlimit:10;stroke-dasharray:none;stroke-opacity:1"
             d="m 586.77002,337.42499 159.86999,0 0,159.87002 -159.86999,0 0,-159.87002" />
          <path
             inkscape:connector-curvature="0"
             id="path4276"
             style="fill:none;stroke:#000000;stroke-width:0.70499998;stroke-linecap:round;stroke-linejoin:round;stroke-miterlimit:10;stroke-dasharray:none;stroke-opacity:1"
             d="m 387.20999,337.42499 159.87003,0 0,159.87002 -159.87003,0 0,-159.87002" />
          <path
             inkscape:connector-curvature="0"
             id="path4278"
             style="fill:none;stroke:#000000;stroke-width:0.70499998;stroke-linecap:round;stroke-linejoin:round;stroke-miterlimit:10;stroke-dasharray:none;stroke-opacity:1"
             d="m 187.64999,337.42499 159.88501,0 0,159.87002 -159.88501,0 0,-159.87002" />
          <path
             inkscape:connector-curvature="0"
             id="path4280"
             style="fill:none;stroke:#000000;stroke-width:0.70499998;stroke-linecap:round;stroke-linejoin:round;stroke-miterlimit:10;stroke-dasharray:none;stroke-opacity:1"
             d="M 1133.865,737.09998 1133.865,0 0,0" />
        </g>
      </g>
    </g>
  </g>
</svg>
